<svg width="40" height="40" viewBox="0 0 40 40" fill="none" xmlns="http://www.w3.org/2000/svg">
<g clip-path="url(#clip0_3809_4099)">
<path d="M28.313 31.8008C31.9686 29.1921 34.2178 24.8079 34.1937 20.2895C34.3063 13.8425 29.2898 7.71853 22.9624 6.40959L21.0142 9.784C20.805 10.1464 20.4184 10.3696 20 10.3696C19.5815 10.3696 19.1949 10.1464 18.9857 9.784L17.017 6.37415C10.7619 7.70065 5.69148 13.8329 5.80626 20.2895C5.6469 27.8912 12.3305 34.6305 20 34.4832C23.0285 34.4832 25.9104 33.5424 28.313 31.8008ZM17.3244 28.1057C16.6379 28.7921 15.7251 29.1703 14.7541 29.1703C13.7831 29.1703 12.8703 28.7921 12.1838 28.1056C11.4972 27.4191 11.1191 26.5063 11.1191 25.5352C11.1191 24.5643 11.4972 23.6515 12.1838 22.9649C12.8703 22.2784 13.7831 21.9003 14.7541 21.9003C15.3395 21.9003 15.9033 22.0386 16.4095 22.2982L18.4184 20.2894L16.4333 18.3044C15.929 18.552 15.3791 18.6768 14.8288 18.6768C13.898 18.6768 12.9672 18.3226 12.2585 17.614C10.8413 16.1967 10.8413 13.8906 12.2585 12.4733C13.6757 11.0561 15.9819 11.0561 17.3992 12.4733C18.5267 13.6009 18.7562 15.2905 18.0896 16.6481L20.0747 18.6332L21.9837 16.7242C21.7403 16.2308 21.6108 15.6847 21.6108 15.1185C21.6108 14.1474 21.9889 13.2347 22.6755 12.5481C23.3619 11.8616 24.2748 11.4835 25.2457 11.4835C26.2167 11.4835 27.1296 11.8616 27.8161 12.5482C28.5026 13.2347 28.8808 14.1475 28.8808 15.1185C28.8808 16.0894 28.5026 17.0022 27.8161 17.6888C27.1296 18.3753 26.2167 18.7534 25.2457 18.7534C24.6795 18.7534 24.1334 18.624 23.64 18.3805L21.731 20.2895L23.6897 22.2482C24.1699 22.0205 24.6986 21.9004 25.2457 21.9004C26.2167 21.9004 27.1296 22.2785 27.8161 22.9651C28.5026 23.6516 28.8808 24.5644 28.8808 25.5353C28.8808 26.5063 28.5026 27.4191 27.8161 28.1057C27.1296 28.7921 26.2167 29.1703 25.2457 29.1703C24.2748 29.1703 23.3619 28.7921 22.6755 28.1056C21.9889 27.4191 21.6108 26.5063 21.6108 25.5352C21.6108 24.9499 21.7491 24.3861 22.0087 23.8798L20.0747 21.9457L18.0412 23.9793C18.2688 24.4595 18.389 24.9881 18.389 25.5353C18.389 26.5063 18.0109 27.4192 17.3244 28.1057Z" fill="#4DA533"/>
<path d="M32.483 9.5161C33.6771 10.8911 34.6252 12.4369 35.3038 14.0855L38.3799 13.086C37.6854 11.334 36.732 9.67429 35.5319 8.14469C34.6387 7.00597 33.6242 5.97109 32.5155 5.05591L30.613 7.67442C31.2795 8.2362 31.9055 8.85117 32.483 9.5161Z" fill="#4DA533"/>
<path d="M14.754 24.2428C14.4088 24.2428 14.0842 24.3773 13.84 24.6214C13.5959 24.8656 13.4614 25.1901 13.4614 25.5354C13.4614 25.8807 13.5959 26.2053 13.84 26.4494C14.0842 26.6936 14.4088 26.828 14.754 26.828C15.0992 26.828 15.4238 26.6936 15.668 26.4494C15.9121 26.2054 16.0466 25.8807 16.0466 25.5354C16.0466 25.1902 15.9121 24.8656 15.668 24.6215C15.4238 24.3773 15.0992 24.2428 14.754 24.2428Z" fill="#4DA533"/>
<path d="M24.1812 4.29889C25.7856 4.73356 27.3163 5.40763 28.7218 6.29244L30.6258 3.6719C29.1398 2.71034 27.5312 1.94617 25.8481 1.41187L24.1812 4.29889Z" fill="#4DA533"/>
<path d="M25.2457 26.828C25.5909 26.828 25.9155 26.6935 26.1597 26.4494C26.4038 26.2052 26.5383 25.8806 26.5383 25.5353C26.5383 25.1901 26.4038 24.8655 26.1597 24.6214C25.9155 24.3773 25.5909 24.2428 25.2457 24.2428C24.9005 24.2428 24.5759 24.3773 24.3317 24.6214C24.0876 24.8656 23.9531 25.1901 23.9531 25.5354C23.9531 25.8807 24.0876 26.2053 24.3317 26.4494C24.5759 26.6935 24.9005 26.828 25.2457 26.828Z" fill="#4DA533"/>
<path d="M25.2457 16.411C25.5909 16.411 25.9155 16.2766 26.1597 16.0324C26.4038 15.7883 26.5383 15.4637 26.5383 15.1185C26.5383 14.7732 26.4038 14.4486 26.1597 14.2045C25.9155 13.9604 25.5909 13.8259 25.2457 13.8259C24.9005 13.8259 24.5759 13.9604 24.3317 14.2045C24.0876 14.4487 23.9531 14.7733 23.9531 15.1186C23.9531 15.4638 24.0876 15.7884 24.3317 16.0325C24.5759 16.2765 24.9005 16.411 25.2457 16.411Z" fill="#4DA533"/>
<path d="M15.7428 14.1297C15.4908 13.8777 15.1598 13.7517 14.8288 13.7517C14.4978 13.7517 14.1668 13.8777 13.9148 14.1297C13.4109 14.6336 13.4109 15.4537 13.9148 15.9576C14.4188 16.4615 15.2388 16.4616 15.7428 15.9576C16.2468 15.4536 16.2468 14.6336 15.7428 14.1297Z" fill="#4DA533"/>
<path d="M9.35571 36.9325C12.1804 38.7454 15.4223 39.8025 18.8287 40V36.7845C16.1101 36.5959 13.5217 35.7518 11.2474 34.329L9.35571 36.9325Z" fill="#4DA533"/>
<path d="M35.3346 26.5034C34.5141 28.5312 33.2877 30.3925 31.6954 31.9848C31.3573 32.3229 31.0064 32.6436 30.645 32.9483L32.5372 35.5528C33.0309 35.146 33.5078 34.7134 33.9659 34.2553C35.9226 32.2986 37.4169 30.002 38.3958 27.4981L35.3346 26.5034Z" fill="#4DA533"/>
<path d="M21.1711 36.7845V40C24.5775 39.8025 27.8193 38.7454 30.644 36.9325L28.7524 34.329C26.4781 35.7518 23.8897 36.596 21.1711 36.7845Z" fill="#4DA533"/>
<path d="M23.0318 0H16.9801C16.5754 0 16.322 0.437719 16.5236 0.788613L20 6.83954L23.4878 0.789237C23.6901 0.438344 23.4369 0 23.0318 0V0Z" fill="#4DA533"/>
<path d="M7.46277 35.5529L9.35498 32.9485C8.99362 32.6437 8.64265 32.3231 8.30456 31.9849C6.71218 30.3926 5.48577 28.5314 4.66531 26.5035L1.604 27.4982C2.58305 30.002 4.07728 32.2988 6.03398 34.2554C6.49215 34.7135 6.96907 35.1461 7.46277 35.5529Z" fill="#4DA533"/>
<path d="M39.7457 20.2895C39.7457 18.5875 39.5299 16.9199 39.109 15.312L36.0396 16.3093C36.3669 17.6041 36.5361 18.9402 36.5361 20.2895C36.5361 21.6507 36.3724 22.9865 36.0556 24.2748L39.116 25.2691C39.5307 23.6629 39.7457 21.993 39.7457 20.2895Z" fill="#4DA533"/>
<path d="M4.47247 8.15143C3.27253 9.68025 2.31877 11.3381 1.62378 13.0872L4.70054 14.0869C5.37898 12.4419 6.32579 10.8967 7.51768 9.51886C8.09454 8.85197 8.71942 8.23474 9.38412 7.67053L7.48903 5.06226C6.3806 5.97791 5.3661 7.01294 4.47247 8.15143Z" fill="#4DA533"/>
<path d="M15.8 4.26653L14.1524 1.41284C12.4709 1.94902 10.8633 2.71468 9.37793 3.67725L11.2699 6.28131C12.6732 5.38948 14.2003 4.70823 15.8 4.26653Z" fill="#4DA533"/>
<path d="M0.25415 20.2895C0.25415 21.993 0.469184 23.6629 0.883947 25.2693L3.94431 24.2749C3.62746 22.9866 3.46388 21.6508 3.46388 20.2895C3.46388 18.9419 3.63379 17.606 3.96266 16.3101L0.892927 15.3127C0.470589 16.9209 0.25415 18.5882 0.25415 20.2895Z" fill="#4DA533"/>
</g>
<defs>
<clipPath id="clip0_3809_4099">
<rect width="40" height="40" fill="white"/>
</clipPath>
</defs>
</svg>
