<svg width="20" height="20" viewBox="0 0 20 20" fill="none" xmlns="http://www.w3.org/2000/svg">
<path d="M13.3256 3.4072C14.2807 2.25072 13.8712 1.15466 13.2281 0.565911C12.2506 -0.328957 11.0814 -0.0154188 10.4088 0.654589C10.184 0.878589 9.82179 0.882887 9.59169 0.664317C8.50376 -0.368959 7.38618 -0.0332326 6.75973 0.568177C5.80064 1.48887 6.03421 2.67907 6.65848 3.40033L6.67059 3.41295C6.67086 3.41326 6.67117 3.41353 6.67145 3.41385L9.99527 6.88804L13.3256 3.4072Z" fill="#4DA533"/>
<path d="M17.0763 8.14924C16.8524 7.92442 16.8481 7.56224 17.0666 7.33215C18.0986 6.24551 17.7192 5.08316 17.0806 4.418C16.1038 3.40047 14.8903 3.60255 14.1671 4.22287L10.8237 7.71737C11.791 8.64294 14.0896 10.8421 14.3238 11.0662C15.4802 12.021 16.5763 11.6116 17.165 10.9685C18.0598 9.99109 17.7463 8.8219 17.0763 8.14924Z" fill="#4DA533"/>
<path d="M9.18353 7.73492L5.85439 4.25518C5.35592 3.84722 4.80361 3.66553 4.2549 3.73046C3.75608 3.78948 3.2769 4.04536 2.90559 4.45094C2.53787 4.85257 2.32332 5.3476 2.30141 5.84482C2.27762 6.38502 2.48947 6.89588 2.91411 7.32216C3.13803 7.54698 3.14232 7.90915 2.92383 8.13924C1.89177 9.22584 2.27125 10.3882 2.90981 11.0534C3.88656 12.0708 5.1002 11.869 5.82341 11.2488C5.94803 11.1201 6.8195 10.2081 7.59225 9.39949C8.41129 8.5424 8.89652 8.03478 9.18353 7.73492Z" fill="#4DA533"/>
<path d="M10.3987 14.8071C11.4853 15.839 12.6476 15.4596 13.3128 14.821C14.3299 13.8446 14.1285 12.6318 13.5089 11.9085C13.2501 11.6609 10.9734 9.48264 10.0127 8.56348C9.62298 8.97073 9.00735 9.61496 8.43954 10.2091C7.12066 11.5893 6.76544 11.9606 6.66609 12.0631C5.70997 13.2199 6.11902 14.3166 6.76231 14.9054C7.7398 15.8004 8.90903 15.4868 9.58165 14.8168C9.80651 14.5929 10.1687 14.5886 10.3987 14.8071Z" fill="#4DA533"/>
<path d="M14.6153 18.828H12.7269C11.5437 18.828 10.5812 17.8655 10.5812 16.6823V16.3388C10.3864 16.2493 10.1928 16.1369 10.0023 15.999C9.80923 16.1428 9.6107 16.2595 9.40924 16.3521V16.6823C9.40924 18.5117 10.8975 19.9999 12.7269 19.9999H14.6153C14.9389 19.9999 15.2012 19.7376 15.2012 19.414C15.2012 19.0904 14.9389 18.828 14.6153 18.828Z" fill="#4DA533"/>
</svg>
