<svg width="24" height="24" viewBox="0 0 24 24" fill="none" xmlns="http://www.w3.org/2000/svg">
<g clip-path="url(#clip0_3809_5325)">
<path d="M21.8144 1.02131C21.8144 0.458164 21.3562 0 20.793 0H19.3467C19.4916 0.310672 19.573 0.656601 19.573 1.02131V11.2976H21.8144V1.02131Z" fill="#647385"/>
<path d="M13.4649 24C13.946 24 14.3374 23.6086 14.3374 23.1275V12.7023H2.18567V23.1275C2.18567 23.6086 2.57706 24 3.05822 24H13.4649ZM8.26158 16.276C9.48409 16.276 10.4787 17.2705 10.4787 18.493C10.4787 19.7155 9.48409 20.7101 8.26158 20.7101C7.03908 20.7101 6.04451 19.7155 6.04451 18.493C6.04451 17.2705 7.03908 16.276 8.26158 16.276Z" fill="#647385"/>
<path d="M19.573 22.9787C19.573 23.3434 19.4916 23.6894 19.3467 24H20.793C21.3562 24 21.8143 23.5418 21.8143 22.9787V12.7023H19.5729V22.9787H19.573Z" fill="#647385"/>
<path d="M18.1683 1.02131C18.1683 0.458164 17.7101 0 17.1469 0H15.568C15.6799 0.268905 15.7421 0.563563 15.7421 0.872549V11.2976H18.1682V1.02131H18.1683Z" fill="#647385"/>
<path d="M15.7421 23.1275C15.7421 23.4365 15.68 23.7311 15.5681 24H17.147C17.7101 24 18.1683 23.5419 18.1683 22.9787V12.7023H15.7421V23.1275Z" fill="#647385"/>
<path d="M8.2616 19.3054C8.70951 19.3054 9.07398 18.941 9.07398 18.493C9.07398 18.0451 8.70956 17.6807 8.2616 17.6807C7.81364 17.6807 7.44922 18.0451 7.44922 18.493C7.44922 18.941 7.81364 19.3054 8.2616 19.3054Z" fill="#647385"/>
<path d="M5.94544 4.56423C6.3941 4.56423 6.75782 4.20051 6.75782 3.75185C6.75782 3.30318 6.3941 2.93946 5.94544 2.93946C5.49677 2.93946 5.13306 3.30318 5.13306 3.75185C5.13306 4.20051 5.49677 4.56423 5.94544 4.56423Z" fill="#647385"/>
<path d="M14.3374 0.872549C14.3374 0.391395 13.946 0 13.4649 0H3.05822C2.57711 0 2.18567 0.391395 2.18567 0.872549V11.2976H14.3374V0.872549H14.3374ZM5.94543 5.96892C4.72292 5.96892 3.72835 4.97435 3.72835 3.75185C3.72835 2.52934 4.72292 1.53477 5.94543 1.53477C7.16793 1.53477 8.1625 2.52934 8.1625 3.75185C8.1625 4.97435 7.16793 5.96892 5.94543 5.96892ZM10.5777 9.74226C9.35518 9.74226 8.36061 8.74769 8.36061 7.52518C8.36061 6.30268 9.35518 5.30811 10.5777 5.30811C11.8002 5.30811 12.7948 6.30268 12.7948 7.52518C12.7948 8.74769 11.8002 9.74226 10.5777 9.74226Z" fill="#647385"/>
<path d="M10.5777 8.33761C11.0264 8.33761 11.3901 7.9739 11.3901 7.52523C11.3901 7.07656 11.0264 6.71285 10.5777 6.71285C10.129 6.71285 9.76532 7.07656 9.76532 7.52523C9.76532 7.9739 10.129 8.33761 10.5777 8.33761Z" fill="#647385"/>
</g>
<defs>
<clipPath id="clip0_3809_5325">
<rect width="24" height="24" fill="white"/>
</clipPath>
</defs>
</svg>
