<svg width="24" height="24" viewBox="0 0 24 24" fill="none" xmlns="http://www.w3.org/2000/svg">
<g clip-path="url(#clip0_3809_5313)">
<path d="M14.5732 17.243C14.5885 14.562 16.8041 12.4127 19.4851 12.4127H22.7874V10.9484C22.7874 10.6057 22.5096 10.328 22.167 10.328H0V23.0434C0 23.5709 0.427641 23.9985 0.955172 23.9985H21.8323C22.3598 23.9985 22.7874 23.5709 22.7874 23.0434V22.13H19.4317C16.7432 22.13 14.5577 19.935 14.5732 17.243Z" fill="#647385"/>
<path d="M23.3796 13.86H19.4606C17.5825 13.86 16.0241 15.3597 16.006 17.2377C15.9876 19.1341 17.5249 20.6827 19.4171 20.6827H23.3795C23.7222 20.6827 23.9999 20.4049 23.9999 20.0623V14.4805C24 14.1378 23.7222 13.86 23.3796 13.86ZM18.6181 17.9761C18.2184 17.9761 17.8944 17.6521 17.8944 17.2525C17.8944 16.8528 18.2184 16.5288 18.6181 16.5288C19.0177 16.5288 19.3417 16.8528 19.3417 17.2525C19.3417 17.6521 19.0177 17.9761 18.6181 17.9761Z" fill="#647385"/>
<path d="M14.81 0.00206184C16.9181 1.47066 18.3005 3.91172 18.3005 6.66998C18.3005 7.41487 18.197 8.16736 17.9991 8.8807H21.077C21.3068 8.19914 21.4326 7.42125 21.4326 6.66998C21.4327 3.00825 18.466 0.0268118 14.81 0.00206184Z" fill="#647385"/>
<path d="M10.1789 0.0014534C6.50186 0.0014534 3.51044 2.99292 3.51044 6.66994C3.51044 7.42669 3.63798 8.16956 3.88952 8.88066H5.8165C5.47675 8.22141 5.30008 7.4992 5.30008 6.74963C5.30008 4.10367 7.45272 1.95108 10.0986 1.95108C12.7446 1.95108 14.8972 4.10367 14.8972 6.74963C14.8972 7.50066 14.7235 8.22286 14.3896 8.88066H16.4778C16.7198 8.18306 16.8473 7.42252 16.8473 6.66994C16.8474 2.99292 13.8559 0.0014534 10.1789 0.0014534Z" fill="#647385"/>
<path d="M12.6949 8.83477C13.185 8.23261 13.4441 7.51153 13.4441 6.74967C13.4441 4.905 11.9434 3.4043 10.0987 3.4043C8.25405 3.4043 6.7533 4.905 6.7533 6.74967C6.7533 7.51711 7.00984 8.21751 7.51576 8.83125C7.52898 8.84728 7.54089 8.86392 7.55251 8.8807H12.6612C12.6719 8.86514 12.6827 8.84967 12.6949 8.83477Z" fill="#647385"/>
<path d="M2.05936 6.85449H1.70353C0.762891 6.85378 0 7.61616 0 8.55675V8.88066H2.36517C2.17753 8.22159 2.07487 7.54322 2.05936 6.85449Z" fill="#647385"/>
</g>
<defs>
<clipPath id="clip0_3809_5313">
<rect width="24" height="24" fill="white"/>
</clipPath>
</defs>
</svg>
