<svg width="62" height="24" viewBox="0 0 62 24" fill="none" xmlns="http://www.w3.org/2000/svg">
<g clip-path="url(#clip0_3809_5390)">
<mask id="mask0_3809_5390" style="mask-type:luminance" maskUnits="userSpaceOnUse" x="0" y="0" width="62" height="24">
<path d="M62 0H0V24H62V0Z" fill="white"/>
</mask>
<g mask="url(#mask0_3809_5390)">
<path fill-rule="evenodd" clip-rule="evenodd" d="M24.7165 23.9997H59.8435C61.1423 23.9997 62.0222 23.1056 62.0222 21.8165V2.293C62.0222 2.12667 62.0222 1.96034 61.9802 1.81479C61.7708 0.795993 60.891 0.109863 59.8015 0.109863H25.0299C26.3379 0.273268 27.3494 1.38367 27.3494 2.72915V21.3598C27.3494 22.8109 26.1726 23.9886 24.7165 23.9997ZM31.1626 12.5226H31.5606C31.6233 13.375 31.1206 13.9988 30.3035 14.082C30.0941 14.1236 29.8637 14.1236 29.6331 14.082C28.8579 13.9572 28.4809 13.5414 28.3552 12.6473C28.2505 11.9404 28.2295 11.2335 28.4599 10.5474C28.6066 10.0484 28.9626 9.73648 29.4864 9.61173C29.8844 9.52857 30.2825 9.52857 30.6806 9.65332C31.1206 9.77807 31.4139 10.1107 31.4977 10.5474C31.5616 10.8797 31.5888 11.1999 31.6168 11.5265C31.6255 11.629 31.6344 11.7321 31.6443 11.8365C31.6653 12.0236 31.5606 12.0444 31.4139 12.0444H29.7797C29.4656 12.0444 29.4447 12.0444 29.4656 12.377C29.4656 12.585 29.4864 12.8344 29.5913 13.0216C29.6541 13.1671 29.8427 13.2919 29.9894 13.3127C30.1778 13.3543 30.3245 13.2087 30.4082 13.0216V13.0008C30.4292 12.481 30.7855 12.481 31.1626 12.5226ZM44.0815 13.7783C44.0839 13.8302 44.0863 13.8829 44.0887 13.9364C43.9932 13.9364 43.8933 13.9386 43.791 13.9409C43.5792 13.9456 43.358 13.9504 43.1459 13.9364C43.0883 13.9364 43.0403 13.8472 42.9886 13.7509C42.9655 13.7078 42.9416 13.6632 42.9155 13.6246C42.5595 14.082 42.0567 14.1443 41.533 13.9988C41.3653 13.9572 41.1557 13.8117 41.051 13.6453C40.4852 12.8553 40.8833 11.7949 41.8053 11.5454C41.931 11.5038 42.0567 11.4726 42.1824 11.4414C42.3081 11.4102 42.4338 11.379 42.5595 11.3374C42.8528 11.2543 42.9785 11.0672 42.9365 10.8177C42.8946 10.5474 42.7271 10.4226 42.4548 10.4226C42.1824 10.4226 42.0147 10.5889 41.9937 10.88C41.9937 11.0256 41.931 11.0672 41.7843 11.0672H41.1766C41.0092 11.0672 40.9672 11.0048 40.9672 10.8384C40.9672 10.2771 41.3023 9.81964 41.8681 9.7157C42.2451 9.63251 42.6432 9.63251 43.0202 9.6741C43.7536 9.77807 44.026 10.1315 44.047 10.88V12.6681C44.047 13.0353 44.0631 13.3863 44.0815 13.7783ZM45.8013 9.75974C45.8534 9.80721 45.8587 9.90582 45.8696 10.1107C46.1629 9.75726 46.498 9.61173 46.8961 9.59094C47.5665 9.59094 47.9646 9.94439 47.9856 10.6097C48.0169 11.3894 48.0131 12.1691 48.0092 12.9488C48.0077 13.2087 48.0065 13.4686 48.0065 13.7285C48.0065 13.8741 47.9436 13.9156 47.8179 13.9156C47.7325 13.9156 47.6495 13.9132 47.5682 13.9109C47.4099 13.9063 47.2577 13.9019 47.1057 13.9156C46.9171 13.9156 46.8541 13.8532 46.8541 13.6661V10.9216C46.8541 10.6929 46.7704 10.5058 46.519 10.4642C46.2467 10.4226 45.9743 10.5474 45.9116 10.7969C45.8696 10.9216 45.8696 11.0672 45.8696 11.1919V13.5622C45.8696 13.7423 45.8696 13.8307 45.8252 13.874C45.7825 13.9156 45.6988 13.9156 45.5343 13.9156C45.4725 13.9156 45.4054 13.9194 45.3374 13.9233C45.1292 13.935 44.9116 13.9473 44.8011 13.8532C44.7111 13.7789 44.7285 13.5769 44.7456 13.3766C44.7524 13.2969 44.7591 13.2174 44.7591 13.1463V9.98598C44.7591 9.77807 44.8221 9.69489 45.0315 9.7157C45.1442 9.72966 45.2472 9.72486 45.3473 9.72021C45.3963 9.71793 45.4443 9.7157 45.4925 9.7157C45.6638 9.7157 45.7528 9.7157 45.8013 9.75974ZM57.1828 12.481H57.5598C57.6226 13.3127 57.2035 13.8741 56.4704 13.9988C55.8419 14.1028 55.2552 14.0612 54.7945 13.5622C54.5431 13.2711 54.4801 12.9176 54.4381 12.5434C54.3754 11.9404 54.3754 11.3374 54.5221 10.7345C54.6895 10.0691 55.1505 9.6741 55.8629 9.63251C56.0304 9.61173 56.198 9.61173 56.3657 9.63251C56.9941 9.6741 57.4551 10.0484 57.5808 10.6721C57.6363 10.9201 57.6549 11.1773 57.6735 11.4315C57.6829 11.5608 57.6923 11.6894 57.7065 11.8157C57.7275 12.0028 57.6436 12.0444 57.4759 12.0444H55.8629C55.5486 12.0444 55.5276 12.0444 55.5486 12.3562C55.5696 12.5642 55.6113 12.7721 55.6743 12.98C55.7163 13.1671 55.8629 13.2711 56.0723 13.2711C56.2817 13.2503 56.4074 13.1463 56.4914 12.9592V12.9384C56.5102 12.8949 56.5252 12.8458 56.5403 12.7961C56.5761 12.6796 56.6127 12.5601 56.7008 12.5018C56.7741 12.4437 56.8984 12.4566 57.0238 12.4697C57.0778 12.4753 57.1321 12.481 57.1828 12.481ZM48.656 12.5226H49.4941C49.5358 12.6889 49.5568 12.8344 49.5568 12.98C49.6405 13.2087 49.9129 13.3335 50.2062 13.2503C50.4576 13.1879 50.5833 13.0008 50.5625 12.7513C50.5206 12.5226 50.3739 12.4186 50.1852 12.3562C49.8921 12.2523 49.5988 12.1483 49.3264 12.0444C48.7187 11.8157 48.4463 11.3998 48.4883 10.7969C48.5303 10.2147 48.8654 9.81964 49.4731 9.6741C49.9129 9.57014 50.3529 9.59094 50.7929 9.7157C51.3167 9.86123 51.6308 10.3394 51.568 10.8592C51.568 10.9216 51.4633 11.0048 51.4004 11.0256C51.329 11.0492 51.2506 11.046 51.1695 11.0426C51.108 11.04 51.0445 11.0374 50.9813 11.0464C50.709 11.0672 50.5206 11.0464 50.4996 10.6929C50.4786 10.4642 50.2692 10.381 50.0595 10.4018C49.8291 10.4226 49.6405 10.5266 49.5988 10.7553C49.5568 10.984 49.7035 11.1295 49.8921 11.2127C50.102 11.302 50.3015 11.3701 50.5054 11.4397C50.5862 11.4672 50.6677 11.4951 50.7509 11.5246C51.4633 11.7533 51.7147 12.1067 51.6727 12.8344C51.6518 13.4166 51.2957 13.8325 50.6462 13.978C50.2062 14.0612 49.7664 14.0612 49.3264 13.9364C48.677 13.7493 48.4883 13.2087 48.5093 12.6681C48.5093 12.6265 48.614 12.5226 48.656 12.5226ZM36.9027 13.9364H36.1276C36.1066 13.8117 36.1066 13.7077 36.1276 13.6246V9.69489C36.1276 9.44538 36.0439 9.34144 35.7925 9.36222C35.6536 9.37602 35.5055 9.37151 35.3542 9.36693C35.2772 9.36458 35.1998 9.36222 35.1221 9.36222C34.9545 9.36222 34.8917 9.29985 34.8917 9.1335C34.8811 8.75598 34.8705 8.56886 34.9595 8.47612C35.0468 8.38502 35.2302 8.38502 35.6039 8.38502C35.8972 8.38502 36.1906 8.38732 36.4839 8.38962C37.0704 8.39426 37.6571 8.39886 38.2436 8.38502C38.4742 8.36421 38.5579 8.44739 38.5369 8.67609C38.516 8.80084 38.516 8.94638 38.5369 9.07113C38.5579 9.29985 38.4532 9.36222 38.2436 9.34144C38.1746 9.34144 38.1032 9.3437 38.0311 9.34598C37.8844 9.35063 37.7346 9.35536 37.5942 9.34144C37.3638 9.32063 37.3008 9.38301 37.3008 9.61173V13.5414C37.3008 13.7387 37.3008 13.8375 37.2513 13.8869C37.2016 13.9364 37.102 13.9364 36.9027 13.9364ZM52.4269 13.583V12.2107C52.4269 12.1273 52.4264 12.0446 52.4259 11.962C52.423 11.5502 52.4201 11.1432 52.4898 10.6929C52.4898 10.5266 52.4479 10.4434 52.2594 10.4642C51.9871 10.5058 51.8824 10.4018 51.9241 10.1315V9.9652C51.8824 9.73648 51.9661 9.63251 52.1965 9.6741C52.4061 9.7157 52.4898 9.63251 52.4689 9.4246C52.4549 9.36916 52.4597 9.31372 52.4643 9.25826C52.4667 9.23054 52.4689 9.20282 52.4689 9.1751C52.5108 8.57214 52.8042 8.28105 53.4116 8.23946H54.0191C54.1868 8.23946 54.2707 8.30183 54.2497 8.46818V8.61371C54.2418 8.66855 54.2427 8.72339 54.2437 8.776C54.2454 8.86302 54.2468 8.94398 54.2077 9.00878C54.1778 9.06837 54.083 9.07458 53.9856 9.08097C53.9472 9.08349 53.9081 9.08603 53.8727 9.09194C53.663 9.1335 53.4953 9.48698 53.621 9.65332C53.663 9.69489 53.7887 9.7157 53.8727 9.7157C54.2497 9.7157 54.2497 9.7157 54.2497 10.0899V10.2979C54.2497 10.4434 54.1868 10.5266 54.0401 10.5058H53.8307C53.621 10.485 53.5793 10.5682 53.5793 10.7553C53.5793 11.0726 53.5769 11.3921 53.5747 11.7132C53.5699 12.3601 53.5653 13.0131 53.5793 13.6661C53.5793 13.8948 53.4953 13.9572 53.2859 13.9364C53.175 13.9227 53.0732 13.9271 52.9685 13.9317C52.9149 13.9341 52.8609 13.9364 52.8042 13.9364C52.6119 13.9364 52.5176 13.9364 52.4713 13.8896C52.4269 13.8445 52.4269 13.7562 52.4269 13.583ZM59.272 10.1126C59.2746 10.1413 59.2778 10.175 59.2778 10.2147C59.5291 9.84045 59.8225 9.61173 60.2205 9.63251C60.388 9.63251 60.4719 9.69489 60.4719 9.86123V10.485C60.4719 10.6513 60.4299 10.7345 60.2415 10.7137C60.1158 10.6929 59.9899 10.7137 59.8642 10.7345C59.5081 10.7968 59.3197 11.0256 59.3197 11.3998C59.3197 11.6493 59.3173 11.8988 59.3149 12.1483C59.3103 12.6473 59.3057 13.1463 59.3197 13.6453C59.3197 13.8741 59.2568 13.9572 59.0264 13.9364C58.886 13.9225 58.7362 13.9272 58.5895 13.9319C58.5173 13.9342 58.4459 13.9364 58.3769 13.9364C58.2093 13.9364 58.1673 13.8741 58.1673 13.7285V9.92361C58.1673 9.75726 58.2303 9.7157 58.3769 9.7157C58.5863 9.73648 58.775 9.73648 58.9844 9.7157C59.2148 9.7157 59.3197 9.77807 59.2778 10.0068C59.2647 10.0325 59.2679 10.0661 59.272 10.1126ZM39.417 10.0068V10.2147C39.6684 9.86123 39.9407 9.63251 40.3178 9.61173C40.5272 9.61173 40.6112 9.6741 40.5902 9.88202C40.5692 10.0484 40.5692 10.2355 40.5902 10.4226C40.6112 10.6305 40.5272 10.6929 40.3178 10.6929C40.1292 10.6929 39.8988 10.7553 39.7311 10.8384C39.5007 10.9632 39.4378 11.2127 39.4378 11.4622V13.6869C39.4378 13.8741 39.396 13.9572 39.1864 13.9364C39.0474 13.9226 38.8993 13.9271 38.748 13.9317C38.6713 13.9341 38.5936 13.9364 38.516 13.9364C38.3693 13.9364 38.3066 13.8741 38.3066 13.7285V9.92361C38.3066 9.77807 38.3693 9.7157 38.516 9.7157C38.5876 9.7157 38.6566 9.7181 38.7239 9.72047C38.8542 9.72503 38.9784 9.72938 39.1027 9.7157C39.3331 9.69489 39.4587 9.75726 39.417 10.0068ZM34.1583 12.1067H33.5509C33.4382 12.1067 33.3258 12.1044 33.2141 12.1021C32.9929 12.0975 32.775 12.0929 32.5661 12.1067C32.4194 12.1067 32.3567 12.0444 32.3567 11.8988C32.3671 11.5131 32.3461 11.3626 32.4096 11.3058C32.4728 11.2493 32.6194 11.2854 32.9642 11.2751H34.4517C34.6611 11.2543 34.7451 11.2959 34.7451 11.5246C34.7347 11.8858 34.7501 12.0268 34.6886 12.0796C34.6266 12.1333 34.4855 12.0963 34.1583 12.1067Z" fill="#646567"/>
<path d="M-0.0952148 3C-0.0952148 1.73686 0.936558 0.712891 2.20931 0.712891H24.207C25.4798 0.712891 26.5116 1.73686 26.5116 3V21.0889C26.5116 22.352 25.4798 23.376 24.207 23.376H2.20931C0.936558 23.376 -0.0952148 22.352 -0.0952148 21.0889V3Z" fill="#F4BC4D"/>
<path d="M5.77087 16.0365C6.35748 16.4523 6.92313 16.8058 7.405 17.2216C7.59355 17.388 7.74021 17.6998 7.74021 17.9493C7.76115 18.989 7.78211 20.0285 7.71924 21.0681C7.6564 21.9622 6.86029 22.5651 5.87562 22.5236C4.97476 22.5028 4.19962 21.7958 4.17865 20.9226C4.15771 19.1137 4.15771 17.3048 4.15771 15.4751C4.15771 15.1009 4.43006 14.8514 4.78621 14.8306C5.16332 14.8306 5.43566 15.0801 5.45663 15.4751C5.47757 16.4108 5.45663 17.3464 5.47757 18.2612C5.47757 18.386 5.39378 18.5731 5.60328 18.5939C5.62422 18.5939 5.70803 18.3652 5.70803 18.2404C5.72897 17.5751 5.70803 16.889 5.70803 16.2236C5.74993 16.2028 5.74993 16.1612 5.77087 16.0365Z" fill="#2D2922"/>
<path d="M20.7922 11.6703C20.457 11.7535 20.1637 11.8159 19.8494 11.8782C19.8075 11.8782 19.7237 11.8367 19.6818 11.7743C19.6399 11.6911 19.598 11.6079 19.5561 11.4832C19.3047 11.9198 18.9486 12.1485 18.4877 12.2525C17.8173 12.398 17.2097 12.0238 17.105 11.3377C16.9792 10.4228 17.4192 9.71588 18.3201 9.42481C18.6553 9.32084 19.0114 9.23768 19.3676 9.15452C19.5142 9.11293 19.5771 9.05055 19.5561 8.90501C19.5561 8.86342 19.5561 8.84264 19.5561 8.80104C19.5352 8.42679 19.4304 8.26047 19.2 8.21888C18.8648 8.17729 18.5086 8.38522 18.4248 8.69708C18.3829 8.86342 18.2991 8.9258 18.1315 8.94658C17.8801 8.98817 17.6287 9.05055 17.3773 9.11293C17.3564 9.11293 17.3354 9.11293 17.2935 9.11293C17.2726 8.65551 17.3982 8.23966 17.7544 7.94859C18.341 7.44958 19.0114 7.24167 19.7866 7.36642C20.2894 7.44958 20.6036 7.78225 20.6455 8.28125C20.6875 8.88421 20.6665 9.46637 20.6875 10.0693C20.7084 10.4644 20.7084 10.8594 20.7293 11.2545C20.7084 11.4 20.7503 11.5248 20.7922 11.6703ZM19.5142 9.90301C19.0952 9.98619 18.6972 10.0901 18.362 10.402C18.1734 10.5891 18.1106 10.901 18.2572 11.1089C18.4039 11.3377 18.6134 11.3168 18.8438 11.2545C19.3257 11.0881 19.598 10.5684 19.5142 9.90301Z" fill="#2D2922"/>
<path d="M14.4024 11.7532C14.3395 12.5641 13.7529 13.2918 12.9568 13.5205C12.3912 13.6868 11.8255 13.7284 11.3437 13.3126C11.0084 13.0215 10.8408 12.6057 10.778 12.169C10.6314 11.2542 10.6942 10.3809 11.3017 9.63242C11.8046 8.98788 12.4959 8.73837 13.313 8.86312C13.8996 8.96709 14.2138 9.38291 14.3605 9.92351C14.4443 10.2354 14.4443 10.5888 14.4862 10.9007C14.5071 11.0463 14.4443 11.1086 14.2767 11.1502C13.5434 11.2958 12.8311 11.4829 12.0979 11.6285C11.8884 11.67 11.8465 11.774 11.8884 11.9611C11.9093 12.0235 11.9093 12.0651 11.9303 12.1274C12.035 12.5017 12.2026 12.668 12.4959 12.668C12.8102 12.6888 13.1244 12.4809 13.2292 12.169C13.292 12.0027 13.3758 11.9195 13.5644 11.8987C13.8367 11.8571 14.0881 11.7948 14.3395 11.7324C14.3395 11.7324 14.3605 11.7324 14.4024 11.7532ZM13.3549 10.5265C13.3549 9.84033 12.9149 9.57004 12.3912 9.88192C12.035 10.0898 11.9303 10.4433 11.8884 10.8592C12.3912 10.7344 12.873 10.6304 13.3549 10.5265Z" fill="#2D2922"/>
<path d="M5.47754 14.4353C5.10042 14.3937 4.78618 14.3522 4.40906 14.3106C4.40906 14.2898 4.38812 14.2066 4.38812 14.1234C4.38812 13.0839 4.38812 12.0235 4.38812 10.9839C4.38812 10.7968 4.43003 10.7136 4.63952 10.6928C4.91187 10.6512 5.18423 10.568 5.47754 10.5057C5.47754 10.672 5.49848 10.8175 5.49848 10.9839C5.60323 10.8591 5.66607 10.7552 5.77084 10.672C6.02224 10.4849 6.25268 10.2977 6.54599 10.1938C7.11166 9.98587 7.5935 10.2354 7.78206 10.7968C7.8868 11.1086 7.92871 11.4413 7.92871 11.7532C7.94965 12.6056 7.92871 13.4581 7.92871 14.2898C7.92871 14.4977 7.86586 14.5809 7.65634 14.6225C7.40494 14.664 7.15354 14.7264 6.8812 14.7888C6.8812 14.6432 6.86023 14.5393 6.86023 14.4145C6.86023 13.6452 6.86023 12.8759 6.86023 12.1274C6.86023 12.0443 6.86023 11.9403 6.83929 11.8571C6.81835 11.6076 6.77645 11.3581 6.48314 11.275C6.25268 11.2126 5.87559 11.3581 5.74988 11.6076C5.62419 11.8571 5.51944 12.1274 5.49848 12.3977C5.45657 13.0215 5.47754 13.6452 5.45657 14.269C5.47754 14.3522 5.47754 14.4145 5.47754 14.4353Z" fill="#2D2922"/>
<path d="M23.5785 7.99006C23.5576 7.94847 23.5366 7.90688 23.5157 7.8861C23.4319 7.65738 23.3271 7.44946 23.0548 7.42868C22.7405 7.40787 22.531 7.55343 22.3844 7.82372C22.133 8.28114 22.0911 8.78014 22.1539 9.27915C22.1749 9.50785 22.2377 9.71578 22.3006 9.9237C22.3844 10.1316 22.5101 10.298 22.7615 10.3187C23.0338 10.3395 23.3062 10.2356 23.369 10.0069C23.5157 9.4039 23.9766 9.4039 24.4166 9.32072C24.4793 9.32072 24.5213 9.29994 24.626 9.27915C24.626 9.71578 24.5003 10.09 24.2699 10.4227C23.788 11.1504 22.5939 11.5247 21.8816 11.1088C21.6511 10.9841 21.3997 10.7346 21.295 10.4851C20.8341 9.34153 20.855 8.21876 21.6092 7.19996C22.0492 6.61779 22.6777 6.38907 23.4109 6.49304C24.0185 6.5762 24.3747 6.95046 24.5423 7.51184C24.5841 7.67818 24.5633 7.78213 24.3747 7.80294C24.1023 7.8861 23.8509 7.94847 23.5785 7.99006Z" fill="#2D2922"/>
<path d="M8.72483 10.7554C8.51533 10.797 8.34774 10.8177 8.13824 10.8593C8.13824 10.5682 8.11728 10.3187 8.15918 10.0692C8.15918 9.98608 8.32677 9.90292 8.43152 9.88211C8.70389 9.86133 8.76673 9.73657 8.76673 9.48707C8.74579 8.94649 8.76673 8.94649 9.31144 8.84253C9.47906 8.80093 9.64665 8.78015 9.85615 8.71777C9.85615 9.00887 9.85615 9.25837 9.85615 9.54945C10.1075 9.50785 10.338 9.46629 10.5894 9.40391C10.5894 9.69498 10.5894 9.96529 10.5894 10.2356C10.5894 10.2772 10.4847 10.3396 10.4009 10.3603C9.85615 10.5267 9.83521 10.5267 9.83521 11.1088C9.83521 11.6286 9.83521 12.1484 9.83521 12.689C9.83521 13.188 9.89805 13.2296 10.4009 13.1256C10.4428 13.1256 10.4847 13.1049 10.5475 13.1049C10.5475 13.3751 10.5475 13.6246 10.5475 13.8742C10.5475 13.9157 10.4847 13.9989 10.4428 14.0197C10.1914 14.1028 9.93995 14.2068 9.68855 14.2276C9.18575 14.2692 8.7877 13.8534 8.76673 13.2504C8.74579 12.5227 8.76673 11.795 8.76673 11.0465C8.72483 10.9425 8.72483 10.8593 8.72483 10.7554Z" fill="#2D2922"/>
<path d="M2.54456 15.7663C2.54456 15.6416 2.54456 15.5584 2.54456 15.4752C2.54456 13.6248 2.54456 11.7743 2.54456 9.9446C2.54456 9.7159 2.62836 9.63272 2.83786 9.59115C3.1102 9.54956 3.3616 9.48718 3.67587 9.4248C3.67587 9.54956 3.67587 9.65352 3.67587 9.73668C3.67587 11.6079 3.67587 13.4584 3.67587 15.3297C3.67587 15.4752 3.63397 15.5584 3.48732 15.5792C3.19401 15.6208 2.87977 15.6831 2.54456 15.7663Z" fill="#2D2922"/>
<path d="M15.9108 8.19815C15.9317 8.42687 15.9526 8.61399 15.9736 8.8635C16.1831 8.34368 16.5183 8.05261 17.063 7.99023C17.063 8.36449 17.063 8.73875 17.063 9.09219C17.063 9.13379 17.0002 9.21695 16.9373 9.23773C16.225 9.44567 15.9945 10.007 15.9736 10.6516C15.9526 11.2545 15.9526 11.8575 15.9526 12.4605C15.9526 12.6892 15.8898 12.8139 15.6593 12.8347C15.4079 12.8555 15.1565 12.9387 14.8632 13.001C14.8632 12.8763 14.8423 12.7724 14.8423 12.6892C14.8423 11.3585 14.8423 10.007 14.8423 8.67637C14.8423 8.46843 14.9051 8.38527 15.1146 8.34368C15.387 8.3229 15.6384 8.26052 15.9108 8.19815Z" fill="#2D2922"/>
<path d="M3.90633 17.3257C3.90633 17.6584 3.90633 17.9702 3.90633 18.2821C3.90633 18.3237 3.82252 18.3861 3.78062 18.4069C3.57112 18.4692 3.34066 18.5316 3.13116 18.5524C2.85882 18.594 2.62836 18.4277 2.56551 18.1782C2.50267 17.9287 2.62836 17.6792 2.87976 17.596C3.17307 17.492 3.52922 17.4089 3.90633 17.3257Z" fill="#2D2922"/>
<path d="M3.90632 16.0366C3.90632 16.3693 3.90632 16.6604 3.90632 16.9515C3.90632 17.0139 3.84345 17.0762 3.7806 17.097C3.5711 17.1594 3.34064 17.2218 3.13115 17.2426C2.8588 17.2841 2.62834 17.1386 2.54453 16.8891C2.48169 16.6188 2.6074 16.3693 2.87974 16.2861C3.19399 16.1822 3.5292 16.1198 3.90632 16.0366Z" fill="#2D2922"/>
<path d="M3.90631 18.6147C3.90631 18.9474 3.90631 19.2385 3.90631 19.5296C3.90631 19.592 3.84347 19.6751 3.7806 19.6751C3.55016 19.7375 3.3197 19.7999 3.08924 19.8207C2.79596 19.8623 2.58643 19.6959 2.52359 19.4464C2.46075 19.1969 2.6074 18.9474 2.87974 18.8642C3.19401 18.7811 3.5292 18.7187 3.90631 18.6147Z" fill="#2D2922"/>
<path d="M31.5606 12.5227C31.6234 13.396 31.1416 13.999 30.3035 14.1029C30.0731 14.1237 29.8427 14.1237 29.6331 14.1029C28.858 13.999 28.4599 13.5831 28.3552 12.6683C28.2715 11.9614 28.2505 11.2544 28.4599 10.5683C28.6276 10.0693 28.9627 9.73663 29.4864 9.63266C29.8845 9.5495 30.2825 9.5495 30.6806 9.67426C31.1206 9.81979 31.414 10.1317 31.4977 10.5683C31.5816 10.9841 31.6024 11.4208 31.6444 11.8574C31.6653 12.0445 31.5397 12.0653 31.414 12.0653C30.8692 12.0653 30.3245 12.0653 29.7798 12.0653C29.4447 12.0653 29.4447 12.0653 29.4657 12.398C29.4864 12.6267 29.5074 12.8554 29.5914 13.0425C29.6541 13.1673 29.8427 13.292 29.9894 13.3336C30.1778 13.3752 30.3245 13.2297 30.4082 13.0425V13.0217C30.4292 12.5019 30.7855 12.5227 31.1626 12.5435C31.2883 12.5227 31.414 12.5227 31.5606 12.5227ZM29.4027 11.3168C29.6751 11.3168 29.8637 11.3168 30.0521 11.3168C30.5969 11.3168 30.5969 11.296 30.4922 10.7762C30.4712 10.7346 30.4502 10.6723 30.4502 10.6307C30.3875 10.4643 30.2825 10.3604 30.0941 10.3396C29.8845 10.3188 29.7171 10.3812 29.6331 10.5683C29.5284 10.797 29.4864 11.0465 29.4027 11.3168Z" fill="white"/>
<path d="M44.0887 13.9366C43.7956 13.9366 43.4603 13.9574 43.146 13.9158C43.0622 13.895 42.9995 13.7079 42.9156 13.6039C42.5805 14.0613 42.0777 14.1237 41.533 13.9782C41.3443 13.9366 41.1557 13.791 41.051 13.6247C40.4855 12.8346 40.8836 11.7742 41.8054 11.5247C42.0567 11.4624 42.3081 11.4 42.5595 11.3168C42.8528 11.2336 42.9785 11.0257 42.9366 10.797C42.8946 10.5267 42.7272 10.402 42.4548 10.402C42.1824 10.402 42.0148 10.5683 41.9938 10.8594C41.9728 11.0257 41.9101 11.0465 41.7844 11.0465C41.5747 11.0465 41.3863 11.0465 41.1767 11.0465C41.0092 11.0465 40.9673 10.9841 40.9673 10.8178C40.9673 10.2564 41.3024 9.79901 41.8681 9.69505C42.2451 9.63267 42.6432 9.61189 43.0203 9.65348C43.7537 9.75742 44.047 10.1109 44.047 10.8594C44.047 11.4624 44.047 12.0653 44.047 12.6475C44.047 13.0633 44.068 13.4792 44.0887 13.9366ZM42.9366 11.9198C42.6852 12.0029 42.4548 12.0653 42.2451 12.1485C41.9728 12.2732 41.8471 12.5851 41.9518 12.9386C41.9938 13.1465 42.1195 13.2712 42.3498 13.2712C42.6642 13.2505 42.9156 13.0425 42.9366 12.7307C42.9575 12.4604 42.9366 12.1901 42.9366 11.9198Z" fill="white"/>
<path d="M45.8696 10.1108C46.1629 9.75735 46.519 9.61182 46.9381 9.61182C47.6085 9.61182 48.0065 9.96529 48.0275 10.6306C48.0485 11.6702 48.0275 12.7098 48.0485 13.7494C48.0485 13.8949 47.9856 13.9365 47.8599 13.9365C47.6295 13.9365 47.3988 13.9157 47.1475 13.9365C46.9591 13.9573 46.8961 13.8741 46.8961 13.687C46.8961 12.7722 46.8961 11.8573 46.8961 10.9425C46.8961 10.7138 46.8124 10.5266 46.561 10.4851C46.2886 10.4227 46.0373 10.5682 45.9533 10.8177C45.9116 10.9425 45.9116 11.088 45.9116 11.2128C45.9116 12.0029 45.9116 12.793 45.9116 13.583C45.9116 13.9365 45.9116 13.9365 45.5762 13.9365C45.3249 13.9365 44.9898 13.9989 44.8431 13.8741C44.7174 13.7494 44.8011 13.4167 44.8011 13.1672C44.8011 12.1068 44.8011 11.0672 44.8011 10.0069C44.8011 9.79894 44.8641 9.71578 45.0735 9.73657C45.2202 9.75735 45.3668 9.73657 45.5345 9.73657C45.8276 9.71578 45.8276 9.71578 45.8696 10.1108Z" fill="white"/>
<path d="M57.5599 12.4808C57.6226 13.3124 57.2038 13.8738 56.4284 13.9986C55.821 14.1025 55.2135 14.061 54.7525 13.5619C54.5011 13.2709 54.4174 12.9174 54.3964 12.5431C54.3335 11.9402 54.3335 11.3372 54.4801 10.7343C54.6478 10.0481 55.1086 9.67387 55.821 9.63231C55.9886 9.6115 56.1561 9.6115 56.3237 9.63231C56.9522 9.67387 57.4132 10.0481 57.5389 10.6719C57.6226 11.0461 57.6226 11.4204 57.6646 11.8154C57.6856 12.0026 57.5809 12.0441 57.4342 12.0441C56.8895 12.0441 56.3657 12.0441 55.821 12.0441C55.5066 12.0441 55.4859 12.0441 55.5066 12.356C55.5276 12.564 55.5696 12.7926 55.6323 12.9798C55.6953 13.1669 55.842 13.2709 56.0304 13.2709C56.24 13.2709 56.3657 13.1669 56.4494 12.959V12.9382C56.5124 12.7926 56.5544 12.5847 56.6591 12.5016C56.7848 12.4184 56.9732 12.4808 57.1408 12.4808C57.3085 12.4808 57.4342 12.4808 57.5599 12.4808ZM56.0304 11.3372C56.5961 11.3372 56.6801 11.2333 56.4914 10.7343C56.3867 10.464 56.1771 10.3392 55.9257 10.4016C55.6743 10.464 55.4439 10.859 55.5066 11.1709C55.5696 11.4412 55.8 11.2541 55.9467 11.3164C55.9677 11.3372 55.9886 11.3372 56.0304 11.3372Z" fill="white"/>
<path d="M49.4941 12.5228C49.5358 12.6891 49.5568 12.8346 49.5988 12.9594C49.6825 13.2089 49.9549 13.3129 50.2482 13.2297C50.4996 13.1673 50.6253 12.9802 50.6043 12.7307C50.5836 12.502 50.4159 12.398 50.2272 12.3356C49.9549 12.2317 49.6615 12.1485 49.3684 12.0238C48.7817 11.7951 48.4883 11.3792 48.5303 10.7763C48.5723 10.2149 48.9074 9.79905 49.5151 9.65349C49.9549 9.54955 50.3949 9.54955 50.8349 9.69508C51.3377 9.86143 51.6728 10.3188 51.6101 10.8386C51.6101 10.901 51.5054 10.9842 51.4424 11.005C51.2957 11.0258 51.149 11.005 51.0233 11.0258C50.751 11.0465 50.5626 11.0258 50.5416 10.6723C50.5206 10.4436 50.3319 10.3604 50.1015 10.3812C49.8712 10.402 49.7035 10.506 49.6408 10.7347C49.5988 10.9634 49.7455 11.1089 49.9339 11.1921C50.2062 11.3168 50.4996 11.4 50.793 11.504C51.5054 11.7535 51.7567 12.0861 51.7148 12.8139C51.6938 13.396 51.3167 13.8119 50.6883 13.9574C50.2482 14.0614 49.8082 14.0406 49.3684 13.9158C48.719 13.7287 48.5303 13.2089 48.5513 12.6475C48.5513 12.5851 48.635 12.502 48.698 12.502C48.9284 12.5228 49.2217 12.5228 49.4941 12.5228Z" fill="white"/>
<path d="M36.1276 13.9365C36.1276 13.8117 36.1069 13.7077 36.1069 13.6038C36.1069 12.2939 36.1069 10.984 36.1069 9.67413C36.1069 9.42463 36.0439 9.32068 35.7716 9.34147C35.5412 9.36225 35.3108 9.34147 35.1011 9.34147C34.9335 9.34147 34.8707 9.27909 34.8707 9.11275C34.8498 8.36426 34.8498 8.36426 35.5831 8.36426C36.463 8.36426 37.3428 8.36426 38.2228 8.36426C38.4532 8.36426 38.5369 8.42663 38.516 8.65533C38.4952 8.78008 38.4952 8.92562 38.516 9.05037C38.5369 9.27909 38.4322 9.34147 38.2228 9.32068C38.0132 9.29987 37.7828 9.32068 37.5734 9.32068C37.3638 9.29987 37.2801 9.36225 37.2801 9.59097C37.301 10.9008 37.2801 12.2107 37.2801 13.5206C37.2801 13.9157 37.2801 13.9157 36.882 13.9157C36.6306 13.9365 36.3793 13.9365 36.1276 13.9365Z" fill="white"/>
<path d="M52.4271 12.2109C52.4271 11.7119 52.4271 11.2336 52.4271 10.7346C52.4271 10.5683 52.3852 10.4643 52.1965 10.5059C51.9242 10.5475 51.8195 10.4436 51.8614 10.1733C51.8614 10.1109 51.8614 10.0485 51.8614 10.0069C51.8404 9.79902 51.9242 9.69505 52.1338 9.71583C52.3432 9.73664 52.4271 9.67427 52.4062 9.46635C52.3852 9.38317 52.4062 9.30001 52.4062 9.21685C52.4479 8.61387 52.7412 8.30199 53.3489 8.28121C53.5583 8.26043 53.747 8.28121 53.9564 8.28121C54.1031 8.28121 54.1868 8.34359 54.1868 8.50993C54.1868 8.5515 54.1868 8.61387 54.1868 8.65547C54.1868 8.78022 54.2078 8.94654 54.1451 9.05051C54.1031 9.11288 53.9144 9.11288 53.8097 9.13367C53.6003 9.17526 53.4327 9.52873 53.5583 9.69505C53.6003 9.75743 53.726 9.75743 53.8097 9.75743C54.1868 9.77821 54.1868 9.75743 54.1868 10.1317C54.1868 10.1941 54.1868 10.2564 54.1868 10.3396C54.2078 10.4852 54.1451 10.5475 53.9774 10.5475C53.9144 10.5475 53.8517 10.5475 53.7677 10.5475C53.5793 10.5267 53.5164 10.6099 53.5164 10.797C53.5164 11.7742 53.5164 12.7515 53.5164 13.7079C53.5164 13.9366 53.4536 13.999 53.2233 13.9782C53.0556 13.9574 52.9089 13.9782 52.7412 13.9782C52.3642 13.9782 52.3642 13.9782 52.3642 13.6247C52.4271 13.1257 52.4271 12.6683 52.4271 12.2109Z" fill="white"/>
<path d="M59.2778 10.2145C59.5292 9.84026 59.8015 9.63232 60.2206 9.63232C60.3883 9.63232 60.472 9.6947 60.472 9.86104C60.472 10.069 60.472 10.2769 60.472 10.4848C60.472 10.6511 60.43 10.7343 60.2416 10.7135C60.1159 10.7135 59.9902 10.7135 59.8643 10.7343C59.5082 10.8175 59.3198 11.0254 59.3198 11.3996C59.3198 12.1481 59.3198 12.8966 59.3198 13.6451C59.3198 13.8739 59.2568 13.957 59.0264 13.9362C58.8168 13.9154 58.5864 13.9154 58.377 13.9362C58.2303 13.9362 58.1674 13.8739 58.1674 13.7283C58.1674 12.46 58.1674 11.1917 58.1674 9.92342C58.1674 9.77788 58.2303 9.71551 58.377 9.71551C58.5864 9.71551 58.7751 9.73629 58.9845 9.71551C59.1941 9.6947 59.2988 9.77788 59.2778 10.0066C59.2568 10.0482 59.2778 10.0897 59.2778 10.2145Z" fill="white"/>
<path d="M39.417 10.2148C39.6684 9.84054 39.9408 9.6326 40.3388 9.61182C40.5482 9.61182 40.632 9.65341 40.6112 9.8821C40.5902 10.0692 40.5902 10.2564 40.6112 10.4227C40.632 10.6306 40.5482 10.693 40.3388 10.693C40.1292 10.693 39.9198 10.7346 39.7521 10.8385C39.5217 10.9633 39.4588 11.2128 39.4588 11.4623C39.4588 12.2108 39.4588 12.9385 39.4588 13.687C39.4588 13.8741 39.417 13.9573 39.2074 13.9365C38.977 13.9157 38.7466 13.9365 38.537 13.9365C38.3903 13.9365 38.3276 13.8949 38.3276 13.7286C38.3276 12.4603 38.3276 11.192 38.3276 9.9237C38.3276 9.77816 38.3693 9.71578 38.537 9.71578C38.7256 9.71578 38.914 9.73657 39.1237 9.71578C39.3541 9.69498 39.4798 9.75735 39.4378 10.0069C39.417 10.0692 39.417 10.1108 39.417 10.2148Z" fill="white"/>
<path d="M33.5509 12.1065C33.2156 12.1065 32.9015 12.1065 32.5662 12.1065C32.4195 12.1065 32.3568 12.0442 32.3568 11.8986C32.3568 11.1085 32.2728 11.2749 32.9642 11.2749C33.467 11.2749 33.949 11.2749 34.4518 11.2749C34.6404 11.2749 34.7451 11.3164 34.7451 11.5244C34.7451 12.2521 34.8078 12.0857 34.1584 12.1065C33.949 12.1065 33.7394 12.1065 33.5509 12.1065Z" fill="white"/>
<path d="M29.4027 11.3165C29.4864 11.0254 29.5074 10.7967 29.6121 10.568C29.6961 10.3809 29.8637 10.3185 30.0731 10.3393C30.2618 10.3601 30.3665 10.464 30.4292 10.6304C30.4502 10.672 30.4712 10.7135 30.4712 10.7759C30.5969 11.2957 30.5759 11.3165 30.0312 11.3165C29.8637 11.3165 29.6961 11.3165 29.4027 11.3165Z" fill="#646567"/>
<path d="M42.9365 11.9194C42.9365 12.2105 42.9575 12.46 42.9365 12.7303C42.8946 13.0422 42.6642 13.2501 42.3501 13.2709C42.1194 13.2917 41.9938 13.1461 41.952 12.9382C41.8681 12.5848 41.9728 12.2729 42.2451 12.1482C42.4548 12.065 42.6852 12.0026 42.9365 11.9194Z" fill="#646567"/>
<path d="M56.0304 11.3374C56.0097 11.3374 55.9677 11.3374 55.9467 11.3374C55.8 11.275 55.5696 11.4621 55.5067 11.1918C55.4439 10.8592 55.6533 10.4849 55.9257 10.4225C56.1771 10.3602 56.3867 10.4849 56.4914 10.7552C56.6591 11.2334 56.5751 11.3374 56.0304 11.3374Z" fill="#646567"/>
</g>
</g>
<defs>
<clipPath id="clip0_3809_5390">
<rect width="62" height="24" fill="white"/>
</clipPath>
</defs>
</svg>
