<svg width="138" height="24" viewBox="0 0 138 24" fill="none" xmlns="http://www.w3.org/2000/svg">
<path d="M72.7035 2.71582C73.7896 2.71582 74.831 2.71582 75.9207 2.71582C75.9483 3.22787 75.9309 3.72954 75.9345 4.23121C75.9378 4.7502 75.9345 5.26916 75.9345 5.78811C75.9345 6.29673 75.9345 6.80183 75.9345 7.31045C75.9345 7.81556 75.9345 8.32071 75.9345 8.87428C75.9999 8.82582 76.038 8.80856 76.062 8.7774C76.9691 7.62873 78.1623 7.01982 79.6067 6.88833C81.1137 6.74996 82.4757 7.12362 83.6759 8.06123C84.5241 8.72206 85.1276 9.58007 85.4933 10.5799C86.3379 12.8911 86.2726 15.1746 85.0931 17.3647C84.3001 18.8385 83.076 19.828 81.4274 20.1637C79.3482 20.5857 77.4999 20.1567 76.0794 18.451C76.0518 18.4164 76.0413 18.368 76.0242 18.3265C75.9966 18.3403 75.969 18.3576 75.9414 18.3715C75.9414 18.9285 75.9414 19.4855 75.9414 20.0287C75.6585 20.1083 73.1207 20.1256 72.7035 20.0564C72.7035 14.2854 72.7035 8.51793 72.7035 2.71582ZM82.714 13.5519C82.7034 13.3686 82.7034 13.1817 82.6827 12.9984C82.5553 11.9051 82.1105 10.9813 81.1933 10.3447C79.431 9.11991 77.0137 9.88108 76.2312 11.912C75.8034 13.0157 75.7933 14.1574 76.2381 15.2542C76.7621 16.5481 77.7313 17.3231 79.1449 17.3923C80.4793 17.4581 81.4826 16.8422 82.1689 15.7005C82.5654 15.0431 82.714 14.3166 82.714 13.5519Z" fill="#0E183D"/>
<path d="M96.8378 8.857C96.8378 8.22732 96.8378 7.67029 96.8378 7.08907C97.9414 7.08907 99.0035 7.08907 100.066 7.08907C100.142 7.32432 100.172 19.4821 100.096 20.0356C99.8481 20.1083 97.2587 20.1221 96.8415 20.0495C96.8415 19.489 96.8415 18.9181 96.8415 18.3507C96.8208 18.3438 96.8001 18.3369 96.7794 18.33C96.7205 18.3922 96.6621 18.458 96.6069 18.5203C95.6037 19.6654 94.3483 20.2432 92.8243 20.3021C89.855 20.4162 87.9207 18.4407 87.2206 16.4167C86.5104 14.3685 86.5104 12.3064 87.383 10.3101C88.176 8.49718 89.5482 7.3174 91.5276 6.9645C93.5415 6.60469 95.2826 7.13403 96.6653 8.6944C96.7035 8.72901 96.7449 8.76358 96.8378 8.857ZM96.8829 13.5727C96.8139 13.1437 96.7863 12.7009 96.6722 12.2822C96.2895 10.8395 95.031 9.81884 93.6105 9.7635C92.1067 9.70466 90.8137 10.5662 90.3173 12.002C89.9208 13.1437 89.9585 14.2959 90.4415 15.4099C90.9761 16.6485 92.2447 17.4512 93.5277 17.4097C94.9344 17.3647 96.1138 16.5067 96.5899 15.1746C96.7757 14.6591 96.8516 14.1263 96.8829 13.5727Z" fill="#0E183D"/>
<path d="M123.121 13.6109C125.011 15.7594 126.876 17.8838 128.786 20.0565C128.631 20.0703 128.538 20.0877 128.441 20.0877C127.259 20.0911 126.076 20.0807 124.89 20.0946C124.655 20.098 124.514 20.0115 124.376 19.8351C123.093 18.1917 121.803 16.5552 120.517 14.9187C120.448 14.8322 120.372 14.7492 120.241 14.6765C120.241 16.4652 120.241 18.254 120.241 20.0669C119.138 20.0669 118.079 20.0669 117 20.0669C117 14.2856 117 8.52496 117 2.76784C117.245 2.68827 119.745 2.66751 120.234 2.74708C120.234 5.97856 120.234 9.2204 120.234 12.4587C120.259 12.4657 120.286 12.4726 120.31 12.483C120.386 12.3896 120.466 12.2961 120.541 12.1993C121.803 10.5836 123.069 8.97127 124.321 7.34864C124.486 7.13411 124.659 7.05454 124.924 7.058C126.062 7.07185 127.2 7.06493 128.338 7.06493C128.452 7.06493 128.565 7.06493 128.669 7.06493C128.683 7.09954 128.69 7.10988 128.693 7.12027C128.697 7.13065 128.697 7.1445 128.69 7.15142C126.838 9.29651 124.99 11.4381 123.121 13.6109Z" fill="#0E183D"/>
<path d="M34.3689 14.5727C33.338 14.5762 32.3069 14.5727 31.2759 14.5727C30.231 14.5727 29.1828 14.5727 28.1379 14.5727C27.1069 14.5727 26.0759 14.5727 25.0138 14.5727C25.0552 15.3338 25.2724 15.9774 25.7345 16.5171C26.4793 17.389 27.4517 17.6727 28.5586 17.5343C29.4379 17.4236 30.1 16.9704 30.5345 16.1919C30.6172 16.0431 30.7103 15.9808 30.8827 15.9808C31.9069 15.9877 32.9276 15.9843 33.9517 15.9843C33.9965 15.9843 34.0414 15.9947 34.1172 16.0016C34.1 16.095 34.0931 16.185 34.0621 16.2645C33.2414 18.4512 31.7034 19.797 29.3965 20.1984C28.3103 20.3886 27.2172 20.3471 26.1517 20.0357C24.1138 19.4372 22.7483 18.1051 22.0828 16.1019C21.5103 14.379 21.5207 12.6214 22.131 10.9053C22.9172 8.69793 24.5035 7.40049 26.7966 6.97496C27.9448 6.76043 29.0897 6.80197 30.2069 7.1514C32.5207 7.87796 33.8483 9.50063 34.3379 11.8464C34.5104 12.6767 34.5173 13.5174 34.4103 14.3582C34.4069 14.417 34.3931 14.4689 34.3689 14.5727ZM25.031 12.3238C25.6035 12.4034 30.8448 12.3722 31.0793 12.2961C31.1104 11.6699 30.8621 11.016 30.4103 10.542C29.4896 9.57674 27.9242 9.27919 26.7207 9.85353C25.7 10.3448 25.2034 11.2063 25.031 12.3238Z" fill="#0E183D"/>
<path d="M49.8898 20.3192C48.3308 20.3019 46.9103 19.8867 45.6965 18.8834C44.3621 17.7797 43.6552 16.33 43.4483 14.6243C43.3069 13.4653 43.369 12.3132 43.7483 11.2061C44.5552 8.86375 46.2277 7.48329 48.6174 6.99549C50.2449 6.66332 51.8208 6.87092 53.2965 7.67358C55.0864 8.64581 56.1002 10.1819 56.4829 12.1575C56.6826 13.1885 56.6587 14.223 56.431 15.2471C55.8449 17.8973 53.7312 19.8556 51.0554 20.2154C50.669 20.2708 50.2794 20.2846 49.8898 20.3192ZM53.262 13.6002C53.2482 13.3477 53.2482 13.0916 53.2174 12.8425C53.1898 12.6142 53.1447 12.3858 53.0826 12.1644C52.6723 10.6733 51.3898 9.70795 49.8723 9.74256C48.3483 9.77713 47.1725 10.7632 46.8243 12.3028C46.6274 13.1816 46.6343 14.0639 46.8381 14.9426C46.9793 15.5585 47.2553 16.1086 47.7071 16.5653C49.1068 17.9735 51.9998 17.7416 52.9515 15.3613C53.1792 14.7973 53.262 14.2057 53.262 13.6002Z" fill="#0E183D"/>
<path d="M61.4242 20.0705C60.3276 20.0705 59.2724 20.0705 58.1964 20.0705C58.1964 15.7422 58.1964 11.4244 58.1964 7.08581C59.2622 7.08581 60.3138 7.08581 61.3998 7.08581C61.4656 7.56673 61.3897 8.05804 61.4518 8.60122C61.5622 8.49396 61.6345 8.42478 61.6998 8.35554C62.5485 7.4837 63.5826 7.01316 64.7827 6.90936C65.6139 6.83671 66.4415 6.89897 67.2276 7.20345C68.9379 7.86428 69.9241 9.14094 70.2723 10.9262C70.3657 11.4106 70.4066 11.9088 70.4103 12.4035C70.4241 14.8462 70.4172 17.2922 70.4172 19.7383C70.4172 19.8387 70.4066 19.9425 70.4034 20.067C69.3243 20.067 68.2653 20.067 67.1655 20.067C67.1655 19.9182 67.1655 19.7833 67.1655 19.6484C67.1655 17.4237 67.1756 15.1991 67.1586 12.9709C67.1554 12.5142 67.1002 12.0472 66.9792 11.6078C66.6724 10.4937 65.8066 9.79139 64.6553 9.71182C64.2587 9.68413 63.8447 9.70836 63.4588 9.79831C62.4965 10.0266 61.8861 10.6563 61.593 11.6043C61.4412 12.0956 61.4242 12.6007 61.4242 13.1093C61.4242 15.289 61.4242 17.4687 61.4242 19.6484C61.4242 19.7833 61.4242 19.9182 61.4242 20.0705Z" fill="#0E183D"/>
<path d="M102.497 7.07522C103.583 7.07522 104.624 7.07522 105.707 7.07522C105.707 7.57686 105.707 8.06471 105.707 8.6252C105.817 8.53179 105.879 8.49025 105.927 8.43837C106.807 7.49037 107.904 6.99565 109.183 6.90223C109.862 6.85377 110.541 6.89185 111.197 7.09253C113.048 7.66336 114.148 8.93314 114.551 10.8118C114.655 11.2927 114.703 11.7944 114.707 12.2857C114.724 14.7871 114.714 17.2886 114.714 19.79C114.714 19.8696 114.707 19.9491 114.7 20.0253C114.455 20.1014 111.983 20.1221 111.469 20.0529C111.465 19.925 111.458 19.7935 111.458 19.6585C111.458 17.4685 111.458 15.2784 111.458 13.0884C111.458 12.6144 111.445 12.1438 111.317 11.6837C111.003 10.5523 110.176 9.83268 109.01 9.70811C108.586 9.66316 108.158 9.68042 107.745 9.7946C106.628 10.106 106.014 10.8741 105.81 11.9882C105.752 12.303 105.735 12.6282 105.735 12.95C105.728 15.1746 105.731 17.3993 105.731 19.6239C105.731 19.7588 105.731 19.8973 105.731 20.0253C105.448 20.1014 102.9 20.1152 102.5 20.046C102.497 15.7386 102.497 11.4207 102.497 7.07522Z" fill="#0E183D"/>
<path d="M9.34827 15.0987C10.469 15.0987 11.5207 15.0987 12.5897 15.0987C12.6242 15.3374 12.6517 15.5623 12.6931 15.7871C12.7517 16.1089 12.8759 16.403 13.0586 16.6728C13.6414 17.5309 15.5276 17.6208 16.0449 16.3892C16.1621 16.1089 16.2173 15.7941 16.2655 15.4896C16.3 15.2889 16.2793 15.0744 16.2793 14.8668C16.2793 11.2929 16.2793 7.71884 16.2793 4.14488C16.2793 4.00995 16.2793 3.87156 16.2793 3.747C16.5793 3.66397 19.2103 3.65705 19.5552 3.73662C19.5621 3.84042 19.5724 3.95113 19.5724 4.0653C19.5724 7.75346 19.5759 11.4416 19.5724 15.1332C19.5724 15.7353 19.5207 16.3303 19.3586 16.9116C18.931 18.4512 17.9621 19.4891 16.4483 19.9735C15.1552 20.3852 13.838 20.3887 12.5518 19.9493C10.7655 19.3404 9.74483 18.0637 9.44827 16.2023C9.39312 15.8529 9.38277 15.4965 9.34827 15.0987Z" fill="#0E183D"/>
<path d="M42.6689 20.053C41.5103 20.098 40.3724 20.1879 39.2517 19.9457C37.7345 19.617 36.8276 18.6241 36.6207 17.081C36.5655 16.6727 36.5448 16.2541 36.5448 15.8424C36.5379 13.9637 36.5414 12.0816 36.5414 10.2029C36.5414 10.0783 36.5414 9.95381 36.5414 9.78429C36.0241 9.78429 35.5379 9.78429 35.031 9.78429C35.031 8.86744 35.031 7.99555 35.031 7.0787C35.5241 7.0787 36.0103 7.0787 36.5345 7.0787C36.5345 5.99233 36.5345 4.94745 36.5345 3.88184C37.6345 3.88184 38.6965 3.88184 39.8 3.88184C39.8 4.93015 39.8 5.97156 39.8 7.05793C40.7724 7.05793 41.7069 7.05793 42.6655 7.05793C42.6655 7.9817 42.6655 8.86052 42.6655 9.7739C41.7241 9.7739 40.7966 9.7739 39.8448 9.7739C39.831 9.8915 39.8103 9.97804 39.8103 10.0645C39.8103 12.0608 39.8034 14.0537 39.8138 16.05C39.8172 16.9634 40.1586 17.2955 41.0724 17.3059C41.4862 17.3128 41.9 17.3059 42.3138 17.3093C42.4276 17.3093 42.5379 17.3197 42.6689 17.3267C42.6689 18.24 42.6689 19.1327 42.6689 20.053Z" fill="#0E183D"/>
</svg>
