<svg width="30" height="24" viewBox="0 0 30 24" fill="none" xmlns="http://www.w3.org/2000/svg">
<g clip-path="url(#clip0_3809_5384)">
<path d="M29.3868 23.3795V23.4403H29.4428C29.4552 23.4403 29.4658 23.4374 29.4734 23.4327C29.4805 23.4279 29.4847 23.4196 29.4847 23.4096C29.4847 23.3995 29.4805 23.3919 29.4734 23.3872C29.4658 23.3818 29.4552 23.3795 29.4428 23.3795H29.3868ZM29.4434 23.3369C29.4723 23.3369 29.4947 23.3434 29.5106 23.3564C29.5265 23.3694 29.5342 23.3872 29.5342 23.4096C29.5342 23.4285 29.5283 23.4439 29.5153 23.4563C29.5029 23.4681 29.4853 23.4758 29.4617 23.4787L29.536 23.5644H29.4782L29.4092 23.4793H29.3868V23.5644H29.3384V23.3369H29.4434ZM29.4286 23.643C29.4552 23.643 29.4799 23.6377 29.5023 23.6277C29.5253 23.6176 29.5454 23.604 29.5625 23.5869C29.5796 23.5698 29.5931 23.5497 29.6032 23.526C29.6126 23.503 29.6179 23.4781 29.6179 23.4516C29.6179 23.425 29.6126 23.4001 29.6032 23.3771C29.5931 23.3541 29.5796 23.3334 29.5625 23.3162C29.5454 23.2991 29.5253 23.2855 29.5023 23.2755C29.4799 23.266 29.4552 23.2613 29.4286 23.2613C29.4021 23.2613 29.3768 23.266 29.3537 23.2755C29.3302 23.2855 29.3095 23.2991 29.2924 23.3162C29.2753 23.3334 29.2618 23.3541 29.2523 23.3771C29.2423 23.4001 29.2376 23.425 29.2376 23.4516C29.2376 23.4781 29.2423 23.503 29.2523 23.526C29.2618 23.5497 29.2753 23.5698 29.2924 23.5869C29.3095 23.604 29.3302 23.6176 29.3537 23.6277C29.3768 23.6377 29.4021 23.643 29.4286 23.643ZM29.4286 23.2063C29.4634 23.2063 29.4953 23.2128 29.5259 23.2258C29.556 23.2382 29.5819 23.256 29.6049 23.2784C29.6273 23.3003 29.645 23.3263 29.658 23.3564C29.6709 23.386 29.6774 23.4179 29.6774 23.4516C29.6774 23.4853 29.6709 23.5171 29.658 23.5467C29.645 23.5762 29.6273 23.6023 29.6049 23.6247C29.5819 23.6466 29.556 23.6643 29.5259 23.6773C29.4953 23.6903 29.4634 23.6968 29.4286 23.6968C29.3933 23.6968 29.3608 23.6903 29.3302 23.6773C29.2995 23.6643 29.273 23.6466 29.2506 23.6247C29.2282 23.6023 29.2105 23.5762 29.1975 23.5467C29.1845 23.5171 29.1781 23.4853 29.1781 23.4516C29.1781 23.4179 29.1845 23.386 29.1975 23.3564C29.2105 23.3263 29.2282 23.3003 29.2506 23.2784C29.273 23.256 29.2995 23.2382 29.3302 23.2258C29.3608 23.2128 29.3933 23.2063 29.4286 23.2063ZM6.45639 22.3299C6.45639 21.8962 6.74 21.5398 7.20343 21.5398C7.64623 21.5398 7.94518 21.8808 7.94518 22.3299C7.94518 22.7791 7.64623 23.1201 7.20343 23.1201C6.74 23.1201 6.45639 22.7637 6.45639 22.3299ZM8.44989 22.3299V21.096H7.9145V21.3956C7.7447 21.1734 7.48704 21.034 7.13679 21.034C6.44634 21.034 5.90507 21.5764 5.90507 22.3299C5.90507 23.084 6.44634 23.6259 7.13679 23.6259C7.48704 23.6259 7.7447 23.4864 7.9145 23.2642V23.5638H8.44989V22.3299ZM26.5418 22.3299C26.5418 21.8962 26.8255 21.5398 27.2889 21.5398C27.7323 21.5398 28.0306 21.8808 28.0306 22.3299C28.0306 22.7791 27.7323 23.1201 27.2889 23.1201C26.8255 23.1201 26.5418 22.7637 26.5418 22.3299ZM28.5359 22.3299V20.105H28V21.3956C27.8302 21.1734 27.5725 21.034 27.2223 21.034C26.5318 21.034 25.9906 21.5764 25.9906 22.3299C25.9906 23.084 26.5318 23.6259 27.2223 23.6259C27.5725 23.6259 27.8302 23.4864 28 23.2642V23.5638H28.5359V22.3299ZM15.0955 21.5144C15.4405 21.5144 15.6622 21.7313 15.7187 22.1131H14.441C14.4982 21.7567 14.714 21.5144 15.0955 21.5144ZM15.1061 21.034C14.3845 21.034 13.8797 21.5605 13.8797 22.3299C13.8797 23.1147 14.4051 23.6259 15.1421 23.6259C15.513 23.6259 15.8526 23.5331 16.1515 23.2802L15.8891 22.8825C15.6828 23.0473 15.4198 23.1407 15.1727 23.1407C14.8278 23.1407 14.5136 22.9806 14.4363 22.5362H16.2647C16.27 22.4694 16.2754 22.402 16.2754 22.3299C16.27 21.5605 15.796 21.034 15.1061 21.034ZM21.5707 22.3299C21.5707 21.8962 21.8543 21.5398 22.3178 21.5398C22.7606 21.5398 23.0596 21.8808 23.0596 22.3299C23.0596 22.7791 22.7606 23.1201 22.3178 23.1201C21.8543 23.1201 21.5707 22.7637 21.5707 22.3299ZM23.5643 22.3299V21.096H23.0289V21.3956C22.8585 21.1734 22.6014 21.034 22.2512 21.034C21.5607 21.034 21.0194 21.5764 21.0194 22.3299C21.0194 23.084 21.5607 23.6259 22.2512 23.6259C22.6014 23.6259 22.8585 23.4864 23.0289 23.2642V23.5638H23.5643V22.3299ZM18.5472 22.3299C18.5472 23.0787 19.0672 23.6259 19.8608 23.6259C20.2317 23.6259 20.4788 23.5432 20.7464 23.3316L20.4894 22.8978C20.2883 23.0426 20.0772 23.1201 19.8449 23.1201C19.4174 23.1147 19.1032 22.8051 19.1032 22.3299C19.1032 21.8548 19.4174 21.5451 19.8449 21.5398C20.0772 21.5398 20.2883 21.6172 20.4894 21.762L20.7464 21.3283C20.4788 21.1167 20.2317 21.034 19.8608 21.034C19.0672 21.034 18.5472 21.5812 18.5472 22.3299ZM25.4499 21.034C25.1409 21.034 24.9398 21.1788 24.8007 21.3956V21.096H24.27V23.5638H24.806V22.1804C24.806 21.7721 24.9811 21.5451 25.3313 21.5451C25.4398 21.5451 25.553 21.5605 25.6663 21.6072L25.8314 21.1013C25.7128 21.0546 25.5584 21.034 25.4499 21.034ZM11.0979 21.2922C10.8402 21.122 10.4853 21.034 10.0937 21.034C9.46993 21.034 9.06842 21.3336 9.06842 21.8241C9.06842 22.2265 9.36733 22.4747 9.91805 22.5521L10.171 22.5882C10.4646 22.6296 10.6032 22.707 10.6032 22.8464C10.6032 23.0373 10.4074 23.146 10.0419 23.146C9.671 23.146 9.40329 23.0272 9.22288 22.8878L8.97054 23.3056C9.26416 23.5225 9.63504 23.6259 10.0366 23.6259C10.7476 23.6259 11.1598 23.2902 11.1598 22.8204C11.1598 22.3867 10.8355 22.1597 10.2995 22.0823L10.0472 22.0457C9.81545 22.015 9.62971 21.9688 9.62971 21.8034C9.62971 21.6226 9.80484 21.5144 10.0985 21.5144C10.4128 21.5144 10.717 21.6332 10.8662 21.726L11.0979 21.2922ZM18.0059 21.034C17.6969 21.034 17.4959 21.1788 17.3573 21.3956V21.096H16.8266V23.5638H17.362V22.1804C17.362 21.7721 17.5372 21.5451 17.8874 21.5451C17.9959 21.5451 18.1091 21.5605 18.2223 21.6072L18.3874 21.1013C18.2689 21.0546 18.1144 21.034 18.0059 21.034ZM13.4369 21.096H12.5613V20.3473H12.02V21.096H11.5207V21.5865H12.02V22.7123C12.02 23.2849 12.2417 23.6259 12.875 23.6259C13.1073 23.6259 13.375 23.5538 13.5448 23.435L13.3903 22.9753C13.2305 23.068 13.0554 23.1147 12.9163 23.1147C12.6486 23.1147 12.5613 22.9492 12.5613 22.7016V21.5865H13.4369V21.096ZM5.43163 23.5638V22.015C5.43163 21.4317 5.06075 21.0393 4.46285 21.034C4.1486 21.0286 3.8243 21.1267 3.5973 21.4731C3.42749 21.1994 3.1598 21.034 2.78363 21.034C2.52065 21.034 2.26358 21.1114 2.06252 21.4003V21.096H1.52655V23.5638H2.06723V22.1958C2.06723 21.7674 2.30426 21.5398 2.67042 21.5398C3.02596 21.5398 3.20579 21.7721 3.20579 22.1905V23.5638H3.74707V22.1958C3.74707 21.7674 3.9941 21.5398 4.34968 21.5398C4.71523 21.5398 4.89035 21.7721 4.89035 22.1905V23.5638H5.43163Z" fill="#231F20"/>
<path d="M29.7169 15.3566V14.9961H29.6232L29.5147 15.2437L29.4068 14.9961H29.3124V15.3566H29.3791V15.0847L29.4805 15.3193H29.5495L29.6509 15.0841V15.3566H29.7169ZM29.122 15.3566V15.0576H29.2423V14.9967H28.9357V15.0576H29.056V15.3566H29.122Z" fill="#F79410"/>
<path d="M19.0566 16.9075H10.9424V2.29199H19.0566V16.9075Z" fill="#FF5F00"/>
<path d="M11.4622 9.5984C11.4622 6.63354 12.8473 3.99256 15.0041 2.29061C13.4269 1.04605 11.4363 0.303223 9.273 0.303223C4.15151 0.303223 0 4.46472 0 9.5984C0 14.732 4.15151 18.8935 9.273 18.8935C11.4363 18.8935 13.4269 18.1507 15.0041 16.9061C12.8473 15.2042 11.4622 12.5632 11.4622 9.5984Z" fill="#EB001B"/>
<path d="M30 9.5984C30 14.732 25.8485 18.8935 20.727 18.8935C18.5637 18.8935 16.5732 18.1507 14.9953 16.9061C17.1528 15.2042 18.5378 12.5632 18.5378 9.5984C18.5378 6.63354 17.1528 3.99256 14.9953 2.29061C16.5732 1.04605 18.5637 0.303223 20.727 0.303223C25.8485 0.303223 30 4.46472 30 9.5984Z" fill="#F79E1B"/>
</g>
<defs>
<clipPath id="clip0_3809_5384">
<rect width="30" height="24" fill="white"/>
</clipPath>
</defs>
</svg>
