<svg width="138" height="24" viewBox="0 0 138 24" fill="none" xmlns="http://www.w3.org/2000/svg">
<path d="M134.38 1.92119C132.638 0.720231 130 0.114547 126.543 0.114547H117.488L114.122 18.496H102.261L103.023 14.3256H110.168L111.015 9.64165L103.874 9.65198L104.638 5.50024H111.998L112.977 0.11562H98.031L94.8355 17.5516H89.3505L92.5677 0.114703H84.7546L81.559 17.5507H76.2159L79.4362 0.114703H71.6272L68.2569 18.4962H56.3102L57.0653 14.3258H64.2393L65.087 9.66841L57.9199 9.66117L58.6803 5.50117H66.1228L67.0958 0.114258H20.5203L17.8693 14.6802L12.59 0.114258H4.48381L0.120972 23.8859H7.86244L10.5032 8.9182L15.6261 23.8859H43.3709L46.7442 5.49889H51.0834L47.71 23.8859H120.712L122.829 12.2793L126.252 23.8859H133.998L130.45 14.4019L131.262 14.2262C133.049 13.8407 134.444 13.0128 135.415 11.7715C136.385 10.5189 136.879 8.91064 136.879 6.97886C136.879 4.72987 136.061 3.07519 134.378 1.91982L134.38 1.92119ZM36.6342 18.496H24.7841L25.5494 14.3256H32.9824L33.825 9.62836H26.4637L27.1726 5.50142H39.0056L36.632 18.496H36.6342ZM127.998 10.489C127.219 11.0368 126.09 11.3034 124.546 11.3034H123.015L124.189 4.92421H125.315C126.598 4.92421 127.533 5.13091 128.178 5.55259C128.681 5.88333 129.28 6.53757 129.28 7.77472C129.279 9.27129 128.582 10.0754 127.996 10.4888L127.998 10.489Z" fill="#83BA3B"/>
</svg>
