<svg width="94" height="24" viewBox="0 0 94 24" fill="none" xmlns="http://www.w3.org/2000/svg">
<g clip-path="url(#clip0_3809_5425)">
<path d="M5.85802e-07 0.584253C1.56667 0.584253 3.15527 0.5655 4.73133 0.568626C5.1042 0.568626 5.60553 0.402979 5.81547 0.643636C6.0254 0.884292 5.86873 1.3406 5.87187 1.70627C5.87187 2.12508 5.87187 2.54701 5.87187 3.0627C6.22944 2.52118 6.65016 2.02389 7.1252 1.58126C9.53473 -0.581524 13.6613 -0.293987 15.933 1.94068C17.1963 3.22016 18.0061 4.87621 18.2391 6.65692C18.6394 8.80082 18.5093 11.0098 17.86 13.0921C17.0234 15.5331 15.4379 17.2302 12.8467 17.8146C11.9855 18.0381 11.0887 18.0899 10.2074 17.9671C9.32618 17.8442 8.47789 17.5492 7.71113 17.0989C6.96123 16.6501 6.3456 16.009 5.92827 15.2424C5.8186 15.3456 5.86873 15.4612 5.86873 15.555C5.86873 18.0334 5.86873 20.5087 5.86873 22.984C5.86873 23.256 5.8092 23.331 5.53033 23.3278C3.8164 23.3278 2.10247 23.3278 0.391667 23.3278C0.256934 23.3278 0.125334 23.3278 -0.00939941 23.3497L5.85802e-07 0.584253ZM5.7152 9.02285C5.71315 9.41329 5.73303 9.80353 5.77473 10.1918C5.82051 10.5793 5.90447 10.9614 6.0254 11.3325C6.21495 12.0029 6.62967 12.5879 7.2001 12.9896C7.77052 13.3913 8.46201 13.5853 9.15873 13.5391C10.6847 13.5172 11.7657 12.7233 12.1855 11.2513C12.61 9.80114 12.61 8.26019 12.1855 6.81006C12.0305 6.14868 11.6524 5.56049 11.1145 5.144C10.5766 4.72752 9.91159 4.50802 9.2308 4.52227C7.6798 4.48476 6.58 5.22861 6.05987 6.68192C5.80308 7.4348 5.68627 8.22812 5.7152 9.02285Z" fill="#010101"/>
<path d="M27.9055 0C28.1764 0.0911305 28.4572 0.149882 28.7421 0.175023C30.0652 0.458692 31.2221 1.25307 31.96 2.38469C32.0352 2.49407 32.1073 2.60659 32.2451 2.81912V1.22203C32.2451 0.459435 32.2451 0.459435 33.0003 0.459435C34.592 0.459435 36.1837 0.459435 37.7723 0.459435C38.0481 0.459435 38.1201 0.528194 38.117 0.80323C38.117 6.27061 38.117 11.7359 38.117 17.1991C38.117 17.446 38.0637 17.5335 37.8037 17.5304C36.0427 17.5304 34.2807 17.5304 32.5177 17.5304C32.2733 17.5304 32.2451 17.4491 32.2483 17.2366C32.2483 16.474 32.2483 15.7083 32.2483 14.9519C32.1793 14.9144 32.1605 14.9519 32.148 14.9863C30.6409 17.6335 27.6987 18.5274 24.8097 17.5367C22.56 16.7678 21.1719 15.1176 20.5171 12.9111C19.6491 9.97317 19.6679 7.02591 20.915 4.18179C21.8832 1.99401 23.5501 0.562573 25.9722 0.118765C26.0537 0.118765 26.179 0.140643 26.2166 0.00937622L27.9055 0ZM25.9221 8.97617C25.8788 9.92999 26.0535 10.8812 26.4328 11.7578C26.596 12.1388 26.8443 12.4776 27.1587 12.7484C27.4731 13.0193 27.8453 13.2149 28.247 13.3205C29.892 13.7518 31.4242 13.0079 32.007 11.3921C32.5951 9.7471 32.5785 7.94722 31.96 6.31332C31.5025 5.06316 30.5218 4.43808 29.1933 4.4162C28.589 4.387 27.991 4.54898 27.4845 4.87902C26.9781 5.20905 26.5892 5.69027 26.3733 6.25394C26.0361 7.12057 25.8825 8.04742 25.9221 8.97617Z" fill="#010101"/>
<path d="M49.7887 9.64826C50.1866 8.52937 50.5501 7.51361 50.9167 6.49785C51.5904 4.62261 52.2734 2.74736 52.9408 0.87212C52.9466 0.824756 52.9618 0.779014 52.9855 0.737563C53.0092 0.696111 53.0409 0.65978 53.0788 0.630688C53.1167 0.601596 53.1601 0.580325 53.2063 0.568117C53.2526 0.555908 53.3008 0.553006 53.3482 0.55958C54.9994 0.55958 56.6507 0.575207 58.302 0.55958C58.6153 0.55958 58.6341 0.64084 58.5276 0.903375C55.5551 8.27934 52.5857 15.6563 49.6195 23.0344C49.5506 23.2032 49.5036 23.3469 49.2466 23.3469C47.4857 23.3313 45.7216 23.3469 43.9419 23.3469C43.9438 23.1605 43.9934 22.9776 44.086 22.8156C44.9216 20.6216 45.7634 18.4338 46.6115 16.2522C46.6626 16.1442 46.6891 16.0263 46.6891 15.9069C46.6891 15.7875 46.6626 15.6695 46.6115 15.5615C44.437 10.7213 42.2687 5.88215 40.1067 1.04402C40.044 0.900249 39.9876 0.75648 39.9281 0.612712C40.059 0.559127 40.2025 0.543946 40.3417 0.568956C42.1778 0.568956 44.014 0.568956 45.8501 0.568956C45.9737 0.54561 46.1015 0.571004 46.2067 0.639791C46.3119 0.708579 46.3863 0.815395 46.4141 0.937754C47.517 3.80375 48.6356 6.67288 49.7887 9.64826Z" fill="#010101"/>
<path d="M66.1321 13.18H71.2331C72.1011 13.18 72.9721 13.18 73.8401 13.18C74.0594 13.18 74.1346 13.2268 74.1315 13.4581C74.1315 14.752 74.1315 16.046 74.1315 17.3399C74.1315 17.5493 74.0939 17.6524 73.8526 17.6524C68.9709 17.6524 64.0871 17.6524 59.2011 17.6524C58.9755 17.6524 58.9442 17.568 58.9442 17.3743C58.9442 16.1804 58.9442 14.9833 58.9442 13.7894C58.9506 13.6989 58.9759 13.6106 59.0185 13.5304C59.0612 13.4502 59.1202 13.3798 59.1917 13.3237L66.4893 5.2508L66.6647 5.0539C66.577 4.94451 66.4611 5.00077 66.3514 5.00077C64.3335 5.00077 62.3125 5.00077 60.2947 5.00077C59.9406 5.00077 59.8842 4.89138 59.8842 4.57572C59.8842 3.35368 59.8842 2.13477 59.8466 0.915865C59.8466 0.634578 59.9218 0.575195 60.1944 0.575195C64.5372 0.575195 68.8821 0.575195 73.2291 0.575195C73.5424 0.575195 73.58 0.684585 73.5769 0.950244C73.5769 2.15665 73.5769 3.36618 73.5769 4.57259C73.5801 4.67384 73.5629 4.7747 73.5263 4.86919C73.4897 4.96368 73.4344 5.04988 73.3638 5.12266C71.0556 7.67924 68.7495 10.2431 66.4454 12.8143C66.3545 12.9206 66.2699 13.0206 66.1321 13.18Z" fill="#010101"/>
<path d="M85.446 23.9998C90.1702 23.9998 94 20.1797 94 15.4674C94 10.7551 90.1702 6.93506 85.446 6.93506C80.7217 6.93506 76.892 10.7551 76.892 15.4674C76.892 20.1797 80.7217 23.9998 85.446 23.9998Z" fill="#DCF915"/>
</g>
<defs>
<clipPath id="clip0_3809_5425">
<rect width="94" height="24" fill="white"/>
</clipPath>
</defs>
</svg>
