<svg width="70" height="24" viewBox="0 0 70 24" fill="none" xmlns="http://www.w3.org/2000/svg">
<path fill-rule="evenodd" clip-rule="evenodd" d="M50.0241 5.90186C51.5715 5.90186 52.8256 4.63939 52.8256 3.0826C52.8256 1.52491 51.5715 0.26123 50.0241 0.26123C48.4787 0.26123 47.2252 1.52491 47.2252 3.0826C47.2252 4.63939 48.4787 5.90186 50.0241 5.90186ZM28.5694 7.42439C28.443 7.74418 27.5332 10.3324 25.3328 13.015V1.54491L19.4701 2.7119V23.5027H25.3328V17.0761C27.0309 19.641 27.8693 23.5027 27.8693 23.5027H34.8918C34.1971 20.5943 31.1586 15.2317 31.1586 15.2317C33.8857 11.7495 35.0835 8.0391 35.274 7.42439H28.5694ZM43.9823 7.20736C38.7312 7.3771 36.0655 9.74984 36.0655 14.4666V23.5027H41.7943V16.134C41.7943 13.3096 42.1615 12.099 45.4893 11.9835V7.29011C44.9292 7.17038 43.9823 7.20736 43.9823 7.20736ZM9.63763 9.71384C8.91954 9.66618 7.25702 9.55801 7.25702 8.05062C7.25702 6.23164 9.6506 6.23164 10.5483 6.23164C12.1269 6.23164 14.1713 6.70147 15.6313 7.14129C15.6313 7.14129 16.4457 7.43045 17.1388 7.72659L17.2032 7.74418V2.76252L17.1148 2.73615C15.3918 2.12902 13.3882 1.54491 9.67372 1.54491C3.26926 1.54491 1 5.3026 1 8.52166C1 10.3774 1.78973 14.7446 9.1245 15.2483C9.74632 15.2868 11.3964 15.3826 11.3964 16.9403C11.3964 18.2264 10.0454 18.9848 7.77317 18.9848C5.283 18.9848 2.86747 18.3453 1.40028 17.7388V22.8695C3.59671 23.4494 6.07273 23.7391 8.97462 23.7391C15.2368 23.7391 18.0414 20.1839 18.0414 16.6602C18.0414 12.6649 14.903 10.069 9.63763 9.71384ZM47.1843 23.5027H52.8668V7.44258H47.1843V23.5027ZM63.5667 2.56882V23.5027H69.25V1.54491L63.5667 2.56882ZM55.2738 2.56882L60.9518 1.54491V23.5027H55.2738V2.56882Z" fill="url(#paint0_linear_3809_5421)"/>
<defs>
<linearGradient id="paint0_linear_3809_5421" x1="19.4575" y1="0.261231" x2="24.6571" y2="29.2071" gradientUnits="userSpaceOnUse">
<stop stop-color="#6B195F"/>
<stop offset="1" stop-color="#4C255B"/>
</linearGradient>
</defs>
</svg>
