<svg width="78" height="24" viewBox="0 0 78 24" fill="none" xmlns="http://www.w3.org/2000/svg">
<g clip-path="url(#clip0_3809_5378)">
<path d="M0 0.378946C0 0.694736 0.274054 0.842104 1.2227 1.03158C2.76162 1.38947 5.62865 2.46316 6.38757 2.98947C6.70378 3.22105 7.08324 3.66316 7.25189 3.95789C7.39946 4.27368 8.64324 8.90526 10.0346 14.2737L12.5432 24L15.8951 23.9579L19.247 23.8947L24.18 12.2105C26.8784 5.78947 29.0919 0.463158 29.0919 0.357893C29.0919 0.273684 27.6373 0.210526 25.8876 0.210526H22.6622L19.5 8.21053C17.7714 12.6105 16.2957 16.2105 16.2324 16.2105C16.1692 16.2105 15.5157 13.0105 14.7989 9.09474C14.04 5.07368 13.3022 1.72631 13.1124 1.38947C12.9227 1.05263 12.4168 0.610525 12.0162 0.4C11.3627 0.0421047 10.7514 -1.90735e-06 5.64973 -1.90735e-06C0.295135 -1.90735e-06 0 0.0210514 0 0.378946Z" fill="#1A1F71"/>
<path d="M31.9378 0.25263C31.8746 0.4 30.7151 5.81053 29.3449 12.2526L26.8573 24H29.9773C31.6849 24 33.0973 23.9579 33.0973 23.9158C33.0973 23.7895 37.9249 1.11579 38.0935 0.463158L38.1989 -1.90735e-06H35.1211C32.8443 -1.90735e-06 32.0011 0.0631561 31.9378 0.25263Z" fill="#1A1F71"/>
<path d="M46.0621 0.294798C43.6378 1.07375 41.5929 2.67375 40.6865 4.52638C40.307 5.28427 40.1383 6.02111 40.0962 7.22112C40.0119 8.65269 40.0751 8.98954 40.56 10.0001C41.2346 11.3474 42.4783 12.5053 44.3124 13.4737C48.7394 15.7895 49.5616 16.8632 48.0016 18.4211C46.6735 19.7474 43.427 19.8316 40.0751 18.6316C39.3162 18.358 38.6627 18.1685 38.5994 18.2106C38.494 18.3369 37.5454 22.5264 37.5243 22.9685C37.5243 23.2211 37.9038 23.4316 38.8524 23.6843C39.9275 23.958 40.9394 24.0211 44.5865 23.958L49.0135 23.8948L50.4259 23.2001C53.3351 21.7895 55.0638 19.2422 55.0848 16.358C55.1059 13.6211 53.82 11.8527 50.5735 10.0843C48.0016 8.67375 46.9475 7.95796 46.5892 7.30532C46.3151 6.80006 46.3151 6.67375 46.5892 6.14743C47.4113 4.67375 50.6789 4.27375 53.6724 5.28427L55.1902 5.81059L55.6751 3.47375C55.9492 2.21059 56.181 1.07375 56.181 0.94743C56.181 0.842167 55.654 0.589535 55.0216 0.379009C53.567 -0.063097 47.4113 -0.126255 46.0621 0.294798Z" fill="#1A1F71"/>
<path d="M65.6676 0.29468C65.3303 0.442047 64.8876 0.757837 64.6979 0.968363C64.487 1.19994 62.3789 6.0631 59.9757 11.7894C57.5724 17.5157 55.4433 22.6105 55.2324 23.0947L54.8319 23.9999H58.0573H61.3038L61.8941 22.2736L62.5054 20.5263L66.5319 20.4631L70.5373 20.421L70.9589 22.1473L71.3806 23.8947L74.2687 23.9578L77.1779 24.021L77.0303 23.4315C76.946 23.1157 75.8076 17.7263 74.5216 11.4736L72.1606 0.105206L69.2303 0.0631008C67.1433 0.0209942 66.1103 0.0841522 65.6676 0.29468ZM68.5979 11.0526C69.0406 13.1368 69.42 15.0105 69.4833 15.1999C69.5887 15.5368 69.3779 15.5789 67.0589 15.5789C65.6465 15.5789 64.5081 15.5157 64.5081 15.4526C64.5081 14.9894 67.5649 6.96836 67.6703 7.09468C67.7757 7.17889 68.1762 8.96836 68.5979 11.0526Z" fill="#1A1F71"/>
</g>
<defs>
<clipPath id="clip0_3809_5378">
<rect width="78" height="24" fill="white"/>
</clipPath>
</defs>
</svg>
